<svg xmlns="http://www.w3.org/2000/svg" id="nmdpra-logo" width="405" height="353" style="shape-rendering:geometricPrecision;text-rendering:geometricPrecision;image-rendering:optimizeQuality;fill-rule:evenodd;clip-rule:evenodd"><animateTransform attributeName="transform" attributeType="XML" type="rotate" dur="5s" from="0 0 0" to="360 0 0" repeatCount="indefinite"/><path style="opacity:1" fill="#efeeee" d="M188.5 53.5c-.667-1.333-.667-1.333 0 0z"/><path style="opacity:1" fill="#cfcecd" d="M150.5 58.5h-2c.286-2.433.952-2.433 2 0z"/><path style="opacity:1" fill="#f0f1ee" d="M151.5 57.5c1.333.667 1.333.667 0 0z"/><path style="opacity:1" fill="#f4f0f3" d="M184.5 62.5c-.667-1.333-.667-1.333 0 0z"/><path style="opacity:1" fill="#eff0ed" d="M278.5 65.5c1.333.667 1.333.667 0 0z"/><path style="opacity:1" fill="#afb1b0" d="M250.5 67.5c.073 1.527-.594 2.527-2 3-.073-1.527.594-2.527 2-3z"/><path style="opacity:1" fill="#5d5c5e" d="M177.5 79.5c0 .667-.333 1-1 1-1.333.333-1.333.667 0 1 0 .667-.333 1-1 1h-1c-.548-2.584-2.215-3.584-5-3 2.802-2.08 5.469-2.08 8 0z"/><path style="opacity:1" fill="#edf0ec" d="M84.5 97.5c1.333.667 1.333.667 0 0z"/><path style="opacity:1" fill="#dadada" d="M236.5 97.5h2c.667 0 1 .333 1 1-.667 0-1 .333-1 1-1-.333-1.667-1-2-2z"/><path style="opacity:1" fill="#ece71b" d="M269.5 77.5a245.213 245.213 0 0 1-5 17 10.676 10.676 0 0 0 4 5c.913 1.586.913 3.086 0 4.5 2.619.151 4.953.985 7 2.5a4.457 4.457 0 0 1-2 1.5l12 6a12.93 12.93 0 0 0 5 .5c-.626 1.029-1.459 2.029-2.5 3-.667-1.333-1.333-1.333-2 0-1.359-3.45-3.526-3.95-6.5-1.5a188.071 188.071 0 0 1 10 13.5c-1.599.268-2.932-.066-4-1v-2l-3-3h-1c-1.679.215-2.679-.452-3-2 .904-.709 1.237-1.709 1-3-2.292-.256-4.459.077-6.5 1-.195-1.319-.028-2.653.5-4-.06-.543-.393-.876-1-1a55.648 55.648 0 0 0-8 4c1.068.934 2.401 1.268 4 1 .122 2.792 1.456 4.792 4 6 .333 1 1 1.667 2 2 .333 1 1 1.667 2 2 .342.838 1.008 1.172 2 1 .475 2.284 1.475 4.284 3 6a317.23 317.23 0 0 0 4 6c1.208.734 2.541 1.067 4 1v2c-.667 0-1 .333-1 1 .709.904 1.709 1.237 3 1v3c-.543.06-.876.393-1 1 1.058 5.121 3.391 9.454 7 13v2c1.051.722 1.718 1.722 2 3-.904.709-1.237 1.709-1 3a19.372 19.372 0 0 1 8 1l1-1a7.293 7.293 0 0 1-2-3c.872-1.554.872-2.888 0-4 .284-1.915-.049-3.581-1-5v-1c1.25.077 2.083.744 2.5 2-.208 4.291 1.125 7.958 4 11 .893-1.211 1.726-1.211 2.5 0l-3 3c-3.486-1.295-6.986-1.295-10.5 0a20.225 20.225 0 0 0-4.5-3l-1 1c1.511 2.338 1.177 3.004-1 2l-1 1.5c2.099 8.242 2.432 16.409 1 24.5a86.749 86.749 0 0 0-1-18c-1.798-10.561-5.298-20.561-10.5-30a279.84 279.84 0 0 0-27-36c-3.845-6.361-7.678-12.694-11.5-19-.294-3.6-.96-7.1-2-10.5a153.166 153.166 0 0 0 9.5-11.5 8.43 8.43 0 0 0 .5-4c0-.667.333-1 1-1 1.606-1.813 3.606-3.146 6-4a28.265 28.265 0 0 1 10 3 13.115 13.115 0 0 1 1 7z"/><path style="opacity:1" fill="#c8c6ca" d="M165.5 97.5c0 .667.333 1 1 1 .172.992-.162 1.658-1 2 0-.667-.333-1-1-1-.172-.992.162-1.658 1-2z"/><path style="opacity:1" fill="#9fa0a3" d="M314.5 99.5c1.406.473 2.073 1.473 2 3-1.406-.473-2.073-1.473-2-3z"/><path style="opacity:1" fill="#adadad" d="M242.5 106.5h1c0 .667.333 1 1 1s1 .333 1 1c-.667 0-1 .333-1 1-1.406-.473-2.073-1.473-2-3z"/><path style="opacity:1" fill="#1f211f" d="M227.5 79.5c.25 2.174 1.25 3.84 3 5-.172.992.162 1.658 1 2-.172.992.162 1.658 1 2v2c0 .667.333 1 1 1a407.042 407.042 0 0 1 3 6c.333 1 1 1.667 2 2 0 .667.333 1 1 1 0 .667.333 1 1 1-.172.992.162 1.658 1 2-.172.992.162 1.658 1 2v1c-.073 1.527.594 2.527 2 3h1c-.172.992.162 1.658 1 2v1c0 .667.333 1 1 1 0 .667.333 1 1 1 0 .667.333 1 1 1-.172.992.162 1.658 1 2v1c-.215 1.679.452 2.679 2 3 .333 1 1 1.667 2 2 0 .667.333 1 1 1-.172.992.162 1.658 1 2 0 .667.333 1 1 1a2117.87 2117.87 0 0 0 7 12c-.073 1.527.594 2.527 2 3-.073 1.527.594 2.527 2 3 6.499 7.997 11.166 16.997 14 27-.329 2.728.337 5.062 2 7 3.296 17.702 1.296 34.369-6 50-.838.342-1.172 1.008-1 2 0 .667.333 1 1 1a196.059 196.059 0 0 1-20 25c-4.613 1.956-8.28 4.956-11 9-1-1.333-2-1.333-3 0-.992-.172-1.658.162-2 1-2.588 2.125-5.588 3.458-9 4-.992-.172-1.658.162-2 1a73.972 73.972 0 0 0-7 3c.457.798 1.124 1.131 2 1a9.108 9.108 0 0 0 5-1c.798.457 1.131 1.124 1 2-1.495.489-2.829 1.155-4 2-12.51 3.315-25.177 4.315-38 3 5.427-1.646 11.094-2.646 17-3 3.654-.442 7.321-.776 11-1 1.291.237 2.291-.096 3-1 .876.131 1.543-.202 2-1-.825-.886-1.825-1.219-3-1-1.291-.237-2.291.096-3 1a143.698 143.698 0 0 1-40-1c-44.45-16.102-65.117-47.602-62-94.5 4.836-15.173 12.169-29.006 22-41.5 1.406-.473 2.073-1.473 2-3a46.42 46.42 0 0 0 6-10c.667 0 1-.333 1-1 .667 0 1-.333 1-1 .838-.342 1.172-1.008 1-2 .667 0 1-.333 1-1 .667 0 1-.333 1-1 1.406-.473 2.073-1.473 2-3 .667 0 1-.333 1-1 .667 0 1-.333 1-1 1.333 0 2-.667 2-2v-1c.667 0 1-.333 1-1v-1c.667 0 1-.333 1-1 .838-.342 1.172-1.008 1-2 .667 0 1-.333 1-1 .838-.342 1.172-1.008 1-2 .667 0 1-.333 1-1h1c1.406-.473 2.073-1.473 2-3 .838-.342 1.172-1.008 1-2v-1c1.75-1.16 2.75-2.826 3-5 .667 0 1-.333 1-1 .838-.342 1.172-1.008 1-2 .838-.342 1.172-1.008 1-2 .838-.342 1.172-1.008 1-2 .667 0 1-.333 1-1 .667 0 1-.333 1-1v-1c.667 0 1-.333 1-1v-1c.667 0 1-.333 1-1a188.444 188.444 0 0 1 7-17c1.704-2.756 3.037-5.756 4-9 2.244-4.98 4.91-9.814 8-14.5a15.28 15.28 0 0 0 4.5-1.5 15.28 15.28 0 0 0 4.5 1.5 796.29 796.29 0 0 1 22 40.5zm-10 30v-4c.111-.617.444-1.117 1-1.5-1.537-1.11-2.203-2.61-2-4.5 1.624.14 2.79-.527 3.5-2a4.458 4.458 0 0 0 1.5 2c1.849-4.028.182-6.195-5-6.5 3.235-4.448 2.568-7.948-2-10.5-1.419.505-2.085 1.505-2 3a5.728 5.728 0 0 1-3-1c.822-5.508-1.511-8.175-7-8h-1c-3.325-.006-5.659 1.494-7 4.5.284 1.956.284 4.123 0 6.5 1.898-.597 3.565-.597 5 0a27.605 27.605 0 0 1-4.5 2c-1.511-1.174-2.678-2.507-3.5-4-.693-3.338-2.36-3.838-5-1.5-2.301 3.16-1.968 6.16 1 9a11.392 11.392 0 0 1-2 2.5c.011-.942-.489-1.608-1.5-2-1.301 1.655-2.801 2.989-4.5 4 .096-11.92 5.762-19.754 17-23.5 12.686-2.076 21.519 2.758 26.5 14.5 1.928 8.15.095 15.149-5.5 21zm-18 18c.167 21.669 0 43.336-.5 65-.717.544-1.217 1.211-1.5 2a1491.478 1491.478 0 0 1-47 45c-8.022-9.708-13.688-20.708-17-33 1.481-1.444 1.148-2.111-1-2v-13c4.202.317 8.202-.017 12-1 1.461 1.186 2.795 1.186 4 0v-11c-4.921-.362-9.587-1.362-14-3v-1c8.545-23.543 24.879-38.876 49-46 .996-.086 1.829.248 2.5 1a2.428 2.428 0 0 0 .5-2c4.342-.239 8.676-.573 13-1zm56 27c5.568 6.468 9.568 13.801 12 22v1c-3.798.983-7.798 1.317-12 1 .447-6.264-.553-12.264-3-18-.825-.886-1.825-1.219-3-1 .237-1.291-.096-2.291-1-3-.992-1.526-2.492-2.193-4.5-2-2.626-.45-4.126.55-4.5 3a25.879 25.879 0 0 1-1 10l-2-13a7.248 7.248 0 0 1-2.5-2 6.978 6.978 0 0 1-3.5 2.5c.194 4.005-.14 8.171-1 12.5a216.683 216.683 0 0 1-3.5-19c-.383-.556-.883-.889-1.5-1-.526-1.73-1.526-3.064-3-4-1.968-1.319-3.968-1.319-6 0a307.162 307.162 0 0 0-1 35h-11v13h66a170.744 170.744 0 0 1-1 15 898.69 898.69 0 0 0-3 10c-2.198-.091-2.531.575-1 2a79.019 79.019 0 0 1-13 20 755.108 755.108 0 0 1-42-38.5 108.294 108.294 0 0 0-7.5-7.5 4.934 4.934 0 0 1-.5-3v-62c22.87.766 40.87 9.766 54 27zm-8 4c-1.729.736-2.729 2.07-3 4a44.093 44.093 0 0 0-2 3c-1.152-2.606-1.318-5.273-.5-8 2.144-1.344 3.977-1.01 5.5 1zm-60-48h4c5.4.687 10.9 1.354 16.5 2a258.546 258.546 0 0 1 8.5-2c-9.646 7.842-19.313 7.842-29 0zm26-11v2c-2.667-.667-2.667-1.333 0-2zm-23 0c2.501.01 2.668.678.5 2a2.428 2.428 0 0 1-.5-2zm-4 6v1c-.838.342-1.172 1.008-1 2-2.424-2.508-4.09-5.508-5-9 .998-.087 2.165-.42 3.5-1l1 2c.718-.95 1.551-1.117 2.5-.5-.17 1.57-.503 3.403-1 5.5zm31-11c3.743-.04 3.91.626.5 2a2.429 2.429 0 0 1-.5-2zm-11-3c1.006.438 1.006 1.104 0 2-3.595 1.35-4.928 4.017-4 8-.667 0-1-.333-1-1a12.93 12.93 0 0 0-.5-5c-.671-.752-1.504-1.086-2.5-1v-2c2.911 1.484 5.578 1.15 8-1zm6-2c.841 1.88 1.175 3.88 1 6-1.585-.974-2.585-2.474-3-4.5.544-.717 1.211-1.217 2-1.5zm-22-1c2.928 1.137 3.262 2.47 1 4 1.09 1.109 1.09 2.109 0 3-1.522-2.346-1.855-4.68-1-7zm16 1c.927-1.976 2.26-2.31 4-1-1.189.929-2.522 1.262-4 1zm24 80v2c-5.333-.667-5.333-1.333 0-2zm9 0v2c-2.667-.667-2.667-1.333 0-2zm4 67 5 4c-.333 1-1 1.667-2 2-20.291 17.586-43.624 21.919-70 13-1.276-1.114-1.276-2.114 0-3 .843-3.016 2.343-5.683 4.5-8 1.011.837 2.178 1.17 3.5 1 1.955 1.826 4.288 2.326 7 1.5a55.105 55.105 0 0 0 6-10.5 48.493 48.493 0 0 1 3-12c1-.333 1.667-1 2-2a68.142 68.142 0 0 1 14-3c1.247-1.542 1.247-3.042 0-4.5a30.485 30.485 0 0 0-11 0c-8.367 4.733-17.367 7.566-27 8.5a137.011 137.011 0 0 0-8 11.5c-.684 4.375-.684 8.875 0 13.5-.168 1.671-.835 3.004-2 4a100.783 100.783 0 0 1-14-10c-.111-.617-.444-1.117-1-1.5a1556.543 1556.543 0 0 1 47.5-46.5 2516.517 2516.517 0 0 0 42.5 42zm-56-3c1.122-.656 2.455-.989 4-1 1.833.085 3.166.752 4 2-2.088 1.836-3.421 4.169-4 7l-2-1v-1c.475-2.582-.192-4.582-2-6zm0 0v2c-.295 2.235.039 4.235 1 6v1l-2 1c-.667 0-1-.333-1-1-3.024-.447-3.357-1.28-1-2.5l-1-1c.988-2.167 2.321-4 4-5.5zm33 42c1.175-.219 2.175.114 3 1-.457.798-1.124 1.131-2 1-.838-.342-1.172-1.008-1-2z"/><path style="opacity:1" fill="#173f1c" d="M245.5 138.5a121.45 121.45 0 0 0-23-11c.03-.997-.47-1.664-1.5-2a69.1 69.1 0 0 0-14.5-3.5c.837-1.011 1.17-2.178 1-3.5 4.617-.039 8.784-1.373 12.5-4a64.735 64.735 0 0 1 6-9l2.5-12a36.17 36.17 0 0 1 2.5 8 48.856 48.856 0 0 1 9.5 11.5 3.943 3.943 0 0 1-1 2c3.924 1.32 5.757 4.154 5.5 8.5a3.647 3.647 0 0 1 1.5-1c4.448 2.74 5.114 6.24 2 10.5.165 1.117.498 2.284 1 3.5-.82 1.611-2.154 2.278-4 2z"/><path style="opacity:1" fill="#cbc9c0" d="M217.5 105.5a54.713 54.713 0 0 0-9-4c-.798-.457-1.131-1.124-1-2 .295-2.235-.039-4.235-1-6 1.006-.896 1.006-1.562 0-2v-2c-.996-.086-1.829.248-2.5 1a2.429 2.429 0 0 1-.5-2c.789-.283 1.456-.783 2-1.5-1.496-2.447-1.163-3.28 1-2.5 1.24 2.484 2.24 2.484 3 0 .891.61 1.891.943 3 1-.085-1.495.581-2.495 2-3 4.568 2.552 5.235 6.052 2 10.5 5.182.305 6.849 2.472 5 6.5a4.458 4.458 0 0 1-1.5-2c-.71 1.473-1.876 2.14-3.5 2-.203 1.89.463 3.39 2 4.5-.556.383-.889.883-1 1.5zm-4-6v2c-2.667-.667-2.667-1.333 0-2zm4-5a2.429 2.429 0 0 0 .5 2c3.41-1.374 3.243-2.04-.5-2zm-5-5c.841 1.88 1.175 3.88 1 6-1.585-.974-2.585-2.474-3-4.5.544-.717 1.211-1.217 2-1.5zm-6 0c1.478.262 2.811-.071 4-1-1.74-1.31-3.073-.976-4 1z"/><path style="opacity:1" fill="#c7c6bf" d="M191.5 85.5c.822 1.493 1.989 2.826 3.5 4a27.605 27.605 0 0 0 4.5-2 81.216 81.216 0 0 0 3 2.5c-1.882.198-3.548.698-5 1.5-1.057.706-.724 1.04 1 1v2c-1.608-1.038-2.608-.371-3 2a5.575 5.575 0 0 1 1 3 334.56 334.56 0 0 1-10 6c.497-2.097.83-3.93 1-5.5-.949-.617-1.782-.45-2.5.5l-1-2c-1.335.58-2.502.913-3.5 1-.838-.342-1.172-1.008-1-2 1.699-1.011 3.199-2.345 4.5-4 1.011.392 1.511 1.058 1.5 2a11.392 11.392 0 0 0 2-2.5c-2.968-2.84-3.301-5.84-1-9 2.64-2.338 4.307-1.838 5 1.5zm-1 14a2.428 2.428 0 0 0 .5 2c2.168-1.322 2.001-1.99-.5-2zm0-11c-.855 2.32-.522 4.654 1 7 1.09-.891 1.09-1.891 0-3 2.262-1.53 1.928-2.863-1-4z"/><path style="opacity:1" fill="#91605c" d="M202.5 76.5c5.489-.175 7.822 2.492 7 8-.76 2.484-1.76 2.484-3 0 .912-1.238 1.079-2.572.5-4-.741-1.14-1.575-1.14-2.5 0a16.332 16.332 0 0 1-2-4z"/><path style="opacity:1" fill="#9d756e" d="M201.5 76.5v3h-5v5a6.846 6.846 0 0 0 4-1 16.332 16.332 0 0 1 2 4h-3c-1.435-.597-3.102-.597-5 0 .284-2.377.284-4.544 0-6.5 1.341-3.006 3.675-4.506 7-4.5z"/><path style="opacity:1" fill="#86382f" d="M201.5 76.5h1a16.332 16.332 0 0 0 2 4c.925-1.14 1.759-1.14 2.5 0 .579 1.428.412 2.762-.5 4-2.163-.78-2.496.053-1 2.5-.544.717-1.211 1.217-2 1.5 0-.667-.333-1-1-1a16.332 16.332 0 0 0-2-4 6.846 6.846 0 0 1-4 1v-5h5v-3z"/><path style="opacity:1" fill="#1c3820" d="M206.5 47.5a198.435 198.435 0 0 1 15 29l-1.5 1c-14.185-10.035-27.185-8.702-39 4 4.85-13.17 10.517-26.17 17-39 4.865-1.99 7.698-.323 8.5 5z"/><path style="opacity:1" fill="#16401c" d="M206.5 47.5c-.156 4.404 1.344 8.07 4.5 11 1.21 4.998 3.043 9.665 5.5 14-2.342-.004-4.342-.838-6-2.5-7.796-.699-15.463-.365-23 1a922.897 922.897 0 0 0 11-25.5l2-1a640.09 640.09 0 0 0 6 3z"/><path style="opacity:1" fill="#eae423" d="M137.5 81.5c.958.453 1.792 1.12 2.5 2a55.432 55.432 0 0 1 2 12 30.326 30.326 0 0 0-7 6 8.43 8.43 0 0 0-.5 4c3.647-.122 6.481-1.788 8.5-5 2.979 1.249 3.146 2.916.5 5l.5 2c.388-.928 1.055-1.595 2-2a41.866 41.866 0 0 1 6.5 4v1c-6.2 9.376-13.367 18.043-21.5 26-12.398 14.799-19.898 31.799-22.5 51-1.146 10.187-.98 20.521.5 31l4 8c.708.881 1.542 1.547 2.5 2 11.267 23.934 29.267 40.601 54 50a45.074 45.074 0 0 1-13.5-4 9.454 9.454 0 0 1-2.5 1.5c1.473.71 2.14 1.876 2 3.5h-4c-1.4-.6-2.4-1.6-3-3l-2 1-2-3c-.667 0-1 .333-1 1l-2-3c-.333-1-1-1.667-2-2a19.348 19.348 0 0 1-5-3c-1.062-2.257-2.728-3.423-5-3.5-3.521 2.511-4.188 5.345-2 8.5-6.174-1.486-8.174.847-6 7a25.497 25.497 0 0 1-7-5 343.702 343.702 0 0 1-22 11.5c-1.852.773-3.186.273-4-1.5a50.936 50.936 0 0 1-7-9.5c1.485-2.156 2.985-4.323 4.5-6.5 3.165-2.99 6.332-5.99 9.5-9-1.401 3.413-2.235 6.746-2.5 10-2.1-3.427-3.933-2.927-5.5 1.5.593 1.882 1.927 2.882 4 3-2.186 2.571-2.853 5.404-2 8.5a14.984 14.984 0 0 0 3.5-3c1.4 1.692 3.234 2.359 5.5 2-.12-2.705.88-3.372 3-2 1.758-2.238 4.092-3.238 7-3v-3c3.582-.766 7.082-.766 10.5 0a10.21 10.21 0 0 0 2.5-4.5 128.686 128.686 0 0 1-3-5.5c1.208.734 2.541 1.067 4 1 1.517-.011 2.684-.677 3.5-2 .978-3.169.478-6.003-1.5-8.5l1-1c-2.177-1.202-4.511-1.702-7-1.5.237-1.291-.096-2.291-1-3 0-.667-.333-1-1-1a2.428 2.428 0 0 1-2-.5c1.291-1.292 1.291-2.458 0-3.5-3.213-.927-6.213-.261-9 2 1.051.722 1.718 1.722 2 3-2.93-1.201-3.596-3.201-2-6-3.875-.205-5.541-2.205-5-6 5.007-.49 5.674.343 2 2.5 2.809-.384 5.475-1.384 8-3-1.785-1.163-3.785-1.83-6-2 2.107-1.264 3.107-3.097 3-5.5-1.051-.722-1.718-1.722-2-3 .073-1.527-.594-2.527-2-3-.111-.617-.444-1.117-1-1.5 1.158-1.009 1.825-2.342 2-4-.108-1.681-.775-2.848-2-3.5.248-9.04-.085-18.04-1-27v-8c.617-.111 1.117-.444 1.5-1 .495-1.973.662-3.973.5-6 1.446-4.303 3.446-8.469 6-12.5-1.255-1.887-1.255-3.72 0-5.5v-2c.6-1.4 1.6-2.4 3-3v-2l1-2a10.165 10.165 0 0 0 3-3c3.606-2.524 6.272-5.857 8-10 1.581-1.642 2.247-3.642 2-6h3c.838-.342 1.172-1.008 1-2 2.427-.779 2.427-1.946 0-3.5l6-1a6.978 6.978 0 0 1-2.5-3.5c-4.825-2.739-5.325-2.239-1.5 1.5-1.877.576-3.711.409-5.5-.5-1.03.336-1.53 1.003-1.5 2-.992-.172-1.658.162-2 1-.736 1.729-2.07 2.729-4 3a101.94 101.94 0 0 1 3.5-7l1 1a4.934 4.934 0 0 0 .5-3 118.991 118.991 0 0 0-15-3.5l1-1c-2.551-1.309-4.551-3.143-6-5.5a122.812 122.812 0 0 1 13 7 177.599 177.599 0 0 1 22.5-16c-.184-4.402-1.018-8.735-2.5-13z"/><path style="opacity:1" fill="#282620" d="M314.5 99.5c-.073 1.527.594 2.527 2 3a148.516 148.516 0 0 0 10 10.5c-6.596 6.09-12.596 12.59-18 19.5-.904.709-1.237 1.709-1 3-.073 1.527.594 2.527 2 3 3.096 4.937 5.429 10.27 7 16h-3a50.546 50.546 0 0 0-6-12 557.884 557.884 0 0 0-5-10 492.517 492.517 0 0 0 18-19.5 62.123 62.123 0 0 0-7.5-10.5c-1.388-1.054-2.888-1.22-4.5-.5a403.46 403.46 0 0 0-21 11.5c-5.808-5.488-12.141-10.155-19-14a10.676 10.676 0 0 1-4-5 245.213 245.213 0 0 0 5-17c1.54-2.338 2.206-5.005 2-8a38.462 38.462 0 0 1-13-6c-2.98 1.973-4.98 4.64-6 8-.667 0-1 .333-1 1a74.287 74.287 0 0 0-9 11.5 42.22 42.22 0 0 1-8 0c2.9 4.981 5.9 9.815 9 14.5 3.822 6.306 7.655 12.639 11.5 19a279.84 279.84 0 0 1 27 36c5.202 9.439 8.702 19.439 10.5 30a44.093 44.093 0 0 1-2-3c-.886.825-1.219 1.825-1 3a234.758 234.758 0 0 0-10-28c-.432-1.21-1.099-2.21-2-3a363.299 363.299 0 0 0-14.5-20 38.47 38.47 0 0 0-5.5-5c-.667 0-1-.333-1-1 .172-.992-.162-1.658-1-2-.667 0-1-.333-1-1a2.428 2.428 0 0 0-.5-2c-.69-1.238-1.19-1.238-1.5 0-1.548-.321-2.215-1.321-2-3 1.333-.333 1.333-.667 0-1 .172-.992-.162-1.658-1-2-.667 0-1-.333-1-1-.667 0-1-.333-1-1-.667 0-1-.333-1-1 1.333-.333 1.333-.667 0-1 .172-.992-.162-1.658-1-2v-1c0-.667-.333-1-1-1s-1-.333-1-1-.333-1-1-1c.172-.992-.162-1.658-1-2 .172-.992-.162-1.658-1-2-.667 0-1-.333-1-1v-2c0-.667-.333-1-1-1-.756-2.894-2.423-4.894-5-6-.667 0-1-.333-1-1 2.433-.286 2.433-.952 0-2 .172-.992-.162-1.658-1-2 .172-.992-.162-1.658-1-2-.25-2.174-1.25-3.84-3-5 4.2-.8 8.366-.133 12.5 2a1227.31 1227.31 0 0 1 8.5-11c1.406-.473 2.073-1.473 2-3a25.034 25.034 0 0 1 6.5-8c6.487 2.61 12.82 5.61 19 9a153.02 153.02 0 0 1-7.5 25 459.325 459.325 0 0 0 19.5 16 818.595 818.595 0 0 1 23.5-13c1.355.688 2.355 1.688 3 3z"/><path style="opacity:1" fill="#dad738" d="M251.5 72.5a8.43 8.43 0 0 1-.5 4 153.166 153.166 0 0 1-9.5 11.5c1.04 3.4 1.706 6.9 2 10.5-3.1-4.685-6.1-9.519-9-14.5 2.633.253 5.3.253 8 0a74.287 74.287 0 0 1 9-11.5z"/><path style="opacity:1" fill="#d9d740" d="M269.5 77.5a13.115 13.115 0 0 0-1-7 28.265 28.265 0 0 0-10-3c-2.394.854-4.394 2.187-6 4 1.02-3.36 3.02-6.027 6-8a38.462 38.462 0 0 0 13 6c.206 2.995-.46 5.662-2 8z"/><path style="opacity:1" fill="#2b2a24" d="M148.5 58.5h3a7785.654 7785.654 0 0 0 13 20c1.545.952 3.212 1.285 5 1 2.785-.584 4.452.416 5 3 0 .667.333 1 1 1 0 .667-.333 1-1 1s-1 .333-1 1c-.838.342-1.172 1.008-1 2-.838.342-1.172 1.008-1 2-.838.342-1.172 1.008-1 2-.667 0-1 .333-1 1-1.75 1.16-2.75 2.826-3 5h-1c-.838.342-1.172 1.008-1 2 .667 0 1 .333 1 1 .073 1.527-.594 2.527-2 3-.333-1.333-.667-1.333-1 0-.667 0-1 .333-1 1-.838.342-1.172 1.008-1 2-.667 0-1 .333-1 1-.838.342-1.172 1.008-1 2-.667 0-1 .333-1 1-1.333.333-1.333.667 0 1 0 .667-.333 1-1 1-1.333.333-1.333.667 0 1 0 1.333-.667 2-2 2-.667 0-1 .333-1 1-.667 0-1 .333-1 1-1.406.473-2.073 1.473-2 3-.667 0-1 .333-1 1-.667 0-1 .333-1 1-.838.342-1.172 1.008-1 2-.667 0-1 .333-1 1-.667 0-1 .333-1 1-14.762 13.829-25.262 30.496-31.5 50-4.313 22.467-.813 43.134 10.5 62-.073 1.527.594 2.527 2 3 12.883 17.946 29.883 29.279 51 34 .111.617.444 1.117 1 1.5a112.679 112.679 0 0 0 29 2.5c-5.906.354-11.573 1.354-17 3a99.484 99.484 0 0 1-21-4c-24.733-9.399-42.733-26.066-54-50-4.815-13.225-7.149-26.892-7-41 2.602-19.201 10.102-36.201 22.5-51 8.133-7.957 15.3-16.624 21.5-26a384.763 384.763 0 0 0 18-27.5 52.61 52.61 0 0 0-7 0 215.258 215.258 0 0 0-10-13.5c-.842-3.367-2.842-5.7-6-7-5.368 1.008-9.702 3.508-13 7.5.48 3.448 1.48 6.615 3 9.5v2c1.482 4.265 2.316 8.598 2.5 13a177.599 177.599 0 0 0-22.5 16 122.812 122.812 0 0 0-13-7c-3.031-2.335-6.365-4.335-10-6a59.903 59.903 0 0 0-11 11.5 120.407 120.407 0 0 0 8 8.5c1 1.667 2.333 3 4 4a34.47 34.47 0 0 0 6 8 86.35 86.35 0 0 0-10 19l-2 2a30.968 30.968 0 0 0-2 2 64.678 64.678 0 0 1-7-2 9.86 9.86 0 0 0 6-1c1.845-3.277 3.179-6.277 4-9a61.083 61.083 0 0 1 7-10.5 266.615 266.615 0 0 1-18-21 110.96 110.96 0 0 1 13-15c2.742-.295 5.075.538 7 2.5.342.838 1.008 1.172 2 1a211.891 211.891 0 0 1 15.5 9A161.52 161.52 0 0 1 134.5 94c1.304-.804 1.971-1.97 2-3.5a4902.94 4902.94 0 0 0-7-23.5 62.475 62.475 0 0 1 19-8.5z"/><path style="opacity:1" fill="#efea0d" d="M104.5 103.5c1.449 2.357 3.449 4.191 6 5.5l-1 1a118.991 118.991 0 0 1 15 3.5 4.934 4.934 0 0 1-.5 3l-1-1a101.94 101.94 0 0 0-3.5 7c-4.183-.654-7.016 1.012-8.5 5-3.943-1.61-6.943-4.277-9-8-1.044 1.123-1.71 2.456-2 4a9.173 9.173 0 0 0-4.5-2c-1.667-1-3-2.333-4-4-.419-3.096-1.752-5.763-4-8 2.274-2.213 3.774-4.879 4.5-8a6.29 6.29 0 0 1 3-1 31.641 31.641 0 0 0 9.5 3z"/><path style="opacity:1" fill="#ddd93a" d="M104.5 103.5a31.641 31.641 0 0 1-9.5-3 6.29 6.29 0 0 0-3 1c-.726 3.121-2.226 5.787-4.5 8 2.248 2.237 3.581 4.904 4 8a120.407 120.407 0 0 1-8-8.5 59.903 59.903 0 0 1 11-11.5c3.635 1.665 6.969 3.665 10 6z"/><path style="opacity:1" fill="#dfdb38" d="M153.5 69.5a215.258 215.258 0 0 1 10 13.5 52.61 52.61 0 0 1 7 0 384.763 384.763 0 0 1-18 27.5v-1a32.923 32.923 0 0 1 4-9c-1.355-1.175-1.188-2.175.5-3l1 1c.661-2.416 2.161-4.082 4.5-5a7.253 7.253 0 0 0-2-2.5 9.457 9.457 0 0 0 1.5-2.5c.893 1.211 1.726 1.211 2.5 0-.736-2.82-2.402-4.82-5-6a244.43 244.43 0 0 1-6-13z"/><path style="opacity:1" fill="#d9d4da" d="M101.5 97.5c-.992.172-1.658-.162-2-1 1.425-1.531 2.091-1.198 2 1z"/><path style="opacity:1" fill="#efea0d" d="M153.5 69.5a244.43 244.43 0 0 0 6 13c2.598 1.18 4.264 3.18 5 6-.774 1.211-1.607 1.211-2.5 0a9.457 9.457 0 0 1-1.5 2.5 7.253 7.253 0 0 1 2 2.5c-2.339.918-3.839 2.584-4.5 5l-1-1c-1.688.825-1.855 1.825-.5 3a32.923 32.923 0 0 0-4 9 41.866 41.866 0 0 0-6.5-4c-.945.405-1.612 1.072-2 2l-.5-2c2.646-2.084 2.479-3.751-.5-5-2.019 3.212-4.853 4.878-8.5 5a8.43 8.43 0 0 1 .5-4 30.326 30.326 0 0 1 7-6 55.432 55.432 0 0 0-2-12c-.708-.88-1.542-1.547-2.5-2v-2a185.476 185.476 0 0 0-1-11 49.393 49.393 0 0 1 11 1v-3c2.447.115 4.447 1.115 6 3z"/><path style="opacity:1" fill="#ddda35" d="M153.5 69.5c-1.553-1.885-3.553-2.885-6-3v3a49.393 49.393 0 0 0-11-1c.442 3.654.776 7.321 1 11-1.52-2.885-2.52-6.052-3-9.5 3.298-3.992 7.632-6.492 13-7.5 3.158 1.3 5.158 3.633 6 7z"/><path style="opacity:1" fill="#1f1b03" d="M273.5 115.5c-2.475 1.187-3.475 3.187-3 6-.904-.709-1.237-1.709-1-3h-5a55.648 55.648 0 0 1 8-4c.607.124.94.457 1 1z"/><path style="opacity:1" fill="#cacb75" d="M123.5 119.5c.342-.838 1.008-1.172 2-1 2 1.333 3.667 3 5 5 .172.992-.162 1.658-1 2-1-3-3-5-6-6z"/><path style="opacity:1" fill="#312f0e" d="M130.5 123.5c-1.333-2-3-3.667-5-5-.03-.997.47-1.664 1.5-2 1.789.909 3.623 1.076 5.5.5-3.825-3.739-3.325-4.239 1.5-1.5a6.978 6.978 0 0 0 2.5 3.5l-6 1c2.427 1.554 2.427 2.721 0 3.5z"/><path style="opacity:1" fill="#d3cf3b" d="M273.5 115.5c-.528 1.347-.695 2.681-.5 4 2.041-.923 4.208-1.256 6.5-1 .237 1.291-.096 2.291-1 3a2.428 2.428 0 0 0-.5-2 25.14 25.14 0 0 1-4.5 4c-1.527.073-2.527-.594-3-2-.475-2.813.525-4.813 3-6z"/><path style="opacity:1" fill="#2d2a08" d="M123.5 119.5c3 1 5 3 6 6h-2a17.902 17.902 0 0 1-4-6z"/><path style="opacity:1" fill="#4e4b19" d="M264.5 118.5h5c-.237 1.291.096 2.291 1 3 .473 1.406 1.473 2.073 3 2l-1 2c-2.544-1.208-3.878-3.208-4-6-1.599.268-2.932-.066-4-1z"/><path style="opacity:1" fill="#e4e02d" d="M268.5 99.5c6.859 3.845 13.192 8.512 19 14a403.46 403.46 0 0 1 21-11.5c1.612-.72 3.112-.554 4.5.5a62.123 62.123 0 0 1 7.5 10.5 492.517 492.517 0 0 1-18 19.5c1.725 3.367 3.392 6.7 5 10v4a47.141 47.141 0 0 0-6-5.5l2-2c-3.341-3.215-3.675-6.715-1-10.5a32.065 32.065 0 0 1-4-2.5c1.932-.138 3.766.362 5.5 1.5a4.934 4.934 0 0 0 .5-3c3.599.238 3.933-.762 1-3a4.457 4.457 0 0 1 1.5-2c.71 1.473 1.876 2.14 3.5 2 .256-2.412-.744-4.079-3-5 3.063-4.294 5.397-3.96 7 1 1.376-5.503-.124-10.17-4.5-14-3.969 1.062-7.136 3.229-9.5 6.5l1 1c-4.124-.548-7.79.619-11 3.5a12.93 12.93 0 0 1-5-.5l-12-6a4.457 4.457 0 0 0 2-1.5c-2.047-1.515-4.381-2.349-7-2.5.913-1.414.913-2.914 0-4.5z"/><path style="opacity:1" fill="#1e1b01" d="M278.5 121.5c-2.88 1.447-4.213 3.447-4 6-1-.333-1.667-1-2-2l1-2a25.14 25.14 0 0 0 4.5-4c.464.594.631 1.261.5 2z"/><path style="opacity:1" fill="#bab65e" d="M123.5 119.5a17.902 17.902 0 0 0 4 6h-1c-1.979-1.668-4.312-2.334-7-2v-1c1.93-.271 3.264-1.271 4-3z"/><path style="opacity:1" fill="#bebb3e" d="M278.5 121.5c.321 1.548 1.321 2.215 3 2l-5 6c-1-.333-1.667-1-2-2-.213-2.553 1.12-4.553 4-6z"/><path style="opacity:1" fill="#e8e328" d="M119.5 122.5v1c-.667 0-1 .333-1 1-.838.342-1.172 1.008-1 2h-1c-.901.79-1.568 1.79-2 3a308.607 308.607 0 0 0-3 4c-1 .333-1.667 1-2 2 .011 1.517.677 2.684 2 3.5-1.449 1.117-3.116 1.784-5 2 .556.383.889.883 1 1.5-.667 0-1 .333-1 1h-2c-1.723 2.28-2.389 4.947-2 8-.876-.131-1.543.202-2 1a21.127 21.127 0 0 0 9 1c-1.255 1.78-1.255 3.613 0 5.5-2.554 4.031-4.554 8.197-6 12.5-.531-3.279-2.531-4.613-6-4-1.068-.934-2.401-1.268-4-1 .73-1.545 2.063-2.378 4-2.5-1.3-1.616-1.3-3.116 0-4.5a24.846 24.846 0 0 1 1-8c1.18-3.641 2.846-6.974 5-10a174.359 174.359 0 0 0-3-3.5l1-1c-3.86.718-5.86 3.218-6 7.5-.824 1.921-2.157 3.254-4 4a86.35 86.35 0 0 1 10-19 34.47 34.47 0 0 1-6-8c1.67.251 3.17.918 4.5 2 .29-1.544.956-2.877 2-4 2.057 3.723 5.057 6.39 9 8 1.484-3.988 4.317-5.654 8.5-5z"/><path style="opacity:1" fill="#1d1a00" d="M281.5 123.5h1c-1 3-3 5-6 6l5-6z"/><path style="opacity:1" fill="#81783f" d="M118.5 124.5c1.578-.074 3.245.26 5 1-2.493-.369-3.16.297-2 2-1.459.067-2.792-.266-4-1-.172-.992.162-1.658 1-2z"/><path style="opacity:1" fill="#8c8c8c" d="M199.5 127.5a961.42 961.42 0 0 1 1 62c.584 2.785-.416 4.452-3 5 .283-.789.783-1.456 1.5-2 .5-21.664.667-43.331.5-65z"/><path style="opacity:1" fill="#2b290b" d="M285.5 126.5v2c-.904.709-1.237 1.709-1 3 1.322.17 2.489-.163 3.5-1 .667.667.667 1.333 0 2a22.162 22.162 0 0 1-6.5 4c-1.525-1.716-2.525-3.716-3-6 2.577-1.057 4.91-2.39 7-4z"/><path style="opacity:1" fill="#c3c065" d="m282.5 123.5 3 3c-2.09 1.61-4.423 2.943-7 4-.992.172-1.658-.162-2-1 3-1 5-3 6-6z"/><path style="opacity:1" fill="#2a2403" d="M119.5 123.5c2.688-.334 5.021.332 7 2 .247 2.358-.419 4.358-2 6-4-.667-4-1.333 0-2 .268-1.599-.066-2.932-1-4-1.755-.74-3.422-1.074-5-1 0-.667.333-1 1-1z"/><path style="opacity:1" fill="#b9b56e" d="M281.5 130.5c1.976.927 2.309 2.26 1 4-2.142-.937-2.476-2.27-1-4z"/><path style="opacity:1" fill="#211f03" d="M114.5 129.5c6.76 1.457 7.927 4.457 3.5 9-.333-1.547.167-2.88 1.5-4-1.829-.782-3.329-.116-4.5 2-.333-1.547.167-2.88 1.5-4-1.829-.782-3.329-.116-4.5 2-.399-.228-.565-.562-.5-1a308.607 308.607 0 0 1 3-4z"/><path style="opacity:1" fill="#1e201e" d="M222.5 127.5a121.45 121.45 0 0 1 23 11c10.728 8.405 18.394 19.072 23 32a19.22 19.22 0 0 1-1 6c-2.432-8.199-6.432-15.532-12-22-13.13-17.234-31.13-26.234-54-27v62h-1a961.42 961.42 0 0 0-1-62c-4.324.427-8.658.761-13 1-1.291-.237-2.291.096-3 1-24.121 7.124-40.455 22.457-49 46v-8c4.489-10.67 11.156-19.836 20-27.5a367.071 367.071 0 0 1 21-12.5c15.663-4 31.33-4 47 0zm25 31c-1.729.736-2.729 2.07-3 4a44.093 44.093 0 0 0-2 3c-1.152-2.606-1.318-5.273-.5-8 2.144-1.344 3.977-1.01 5.5 1zm-17 11v2c-5.333-.667-5.333-1.333 0-2zm9 0v2c-2.667-.667-2.667-1.333 0-2z"/><path style="opacity:1" fill="#bbb9ba" d="M183.5 129.5c.709-.904 1.709-1.237 3-1a2.428 2.428 0 0 1-.5 2c-.671-.752-1.504-1.086-2.5-1z"/><path style="opacity:1" fill="#fbfff1" d="M308.5 132.5c1.333.667 1.333.667 0 0z"/><path style="opacity:1" fill="#cbc74b" d="M285.5 128.5c1.068.934 2.401 1.268 4 1 .837 2.359 2.337 4.359 4.5 6 .495 1.973.662 3.973.5 6h3a6.846 6.846 0 0 1-1 4c.825.886 1.825 1.219 3 1 .215 1.679-.452 2.679-2 3 .111-.617.444-1.117 1-1.5a8.43 8.43 0 0 0-4-.5c-.203-1.89.463-3.39 2-4.5-2.613-.073-4.946.761-7 2.5v-2c4.231-2.088 4.898-4.921 2-8.5-5.538-.298-7.538 2.202-6 7.5a317.23 317.23 0 0 1-4-6 22.162 22.162 0 0 0 6.5-4c.667-.667.667-1.333 0-2-1.011.837-2.178 1.17-3.5 1-.237-1.291.096-2.291 1-3z"/><path style="opacity:1" fill="#bebb57" d="M123.5 125.5c.934 1.068 1.268 2.401 1 4-4 .667-4 1.333 0 2-1.728 4.143-4.394 7.476-8 10-1.621-2.671-3.954-4.671-7-6 .333-1 1-1.667 2-2-.065.438.101.772.5 1 1.171-2.116 2.671-2.782 4.5-2-1.333 1.12-1.833 2.453-1.5 4 1.171-2.116 2.671-2.782 4.5-2-1.333 1.12-1.833 2.453-1.5 4 4.427-4.543 3.26-7.543-3.5-9 .432-1.21 1.099-2.21 2-3 1.377 3.226 3.043 3.559 5 1-1.16-1.703-.493-2.369 2-2z"/><path style="opacity:1" fill="#2d2405" d="M116.5 126.5h1c1.208.734 2.541 1.067 4 1-1.957 2.559-3.623 2.226-5-1z"/><path style="opacity:1" fill="#8a898c" d="M139.5 136.5c.073 1.527-.594 2.527-2 3-.073-1.527.594-2.527 2-3z"/><path style="opacity:1" fill="#94999b" d="M307.5 135.5c1.406.473 2.073 1.473 2 3-1.406-.473-2.073-1.473-2-3z"/><path style="opacity:1" fill="#f0f1ee" d="M90.5 140.5c-.667-1.333-.667-1.333 0 0z"/><path style="opacity:1" fill="#969597" d="M264.5 139.5c1.406.473 2.073 1.473 2 3-1.406-.473-2.073-1.473-2-3z"/><path style="opacity:1" fill="#292606" d="M289.5 143.5c-1.459.067-2.792-.266-4-1-1.538-5.298.462-7.798 6-7.5 2.898 3.579 2.231 6.412-2 8.5z"/><path style="opacity:1" fill="#dbd455" d="M287.5 136.5h4c.667 4-1 5.667-5 5-.134-1.792.199-3.458 1-5z"/><path style="opacity:1" fill="#272406" d="M109.5 135.5c3.046 1.329 5.379 3.329 7 6a10.165 10.165 0 0 1-3 3l-6-2c-.111-.617-.444-1.117-1-1.5 1.884-.216 3.551-.883 5-2-1.323-.816-1.989-1.983-2-3.5z"/><path style="opacity:1" fill="#bdbb76" d="M112.5 139.5c1.548.321 2.215 1.321 2 3-2.748.098-3.414-.902-2-3z"/><path style="opacity:1" fill="#141514" d="M221.5 143.5c.054 2.132 1.054 3.465 3 4 .617.111 1.117.444 1.5 1a216.683 216.683 0 0 0 3.5 19c.86-4.329 1.194-8.495 1-12.5a6.978 6.978 0 0 0 3.5-2.5 7.248 7.248 0 0 0 2.5 2l2 13a25.879 25.879 0 0 0 1-10 624.355 624.355 0 0 1 2 10c2.273-.875 3.273-2.542 3-5 .271-1.93 1.271-3.264 3-4-.172-.992.162-1.658 1-2 .904.709 1.237 1.709 1 3 1.175-.219 2.175.114 3 1 2.447 5.736 3.447 11.736 3 18 4.183 1.311 8.516 1.311 13 0-.124-.607-.457-.94-1-1v-1a19.22 19.22 0 0 0 1-6c2.933 7.257 4.266 14.923 4 23 .277 6.993-.723 13.66-3 20a21.435 21.435 0 0 1-1-7c.553-4.982.887-9.982 1-15h-66v-13h11a307.162 307.162 0 0 1 1-35c2.032-1.319 4.032-1.319 6 0zm26 15c-1.729.736-2.729 2.07-3 4a44.093 44.093 0 0 0-2 3c-1.152-2.606-1.318-5.273-.5-8 2.144-1.344 3.977-1.01 5.5 1zm-17 11v2c-5.333-.667-5.333-1.333 0-2zm9 0v2c-2.667-.667-2.667-1.333 0-2z"/><path style="opacity:1" fill="#b9b764" d="m107.5 142.5 6 2-1 2c-2.319-.492-4.319-1.492-6-3 0-.667.333-1 1-1z"/><path style="opacity:1" fill="#969596" d="M266.5 142.5c1.406.473 2.073 1.473 2 3-1.406-.473-2.073-1.473-2-3z"/><path style="opacity:1" fill="#222008" d="M297.5 149.5a16.076 16.076 0 0 0-5 2c-.607-.124-.94-.457-1-1 1.585-.502 2.085-1.502 1.5-3-1.356-.88-2.856-1.214-4.5-1 0-.667.333-1 1-1 2.054-1.739 4.387-2.573 7-2.5-1.537 1.11-2.203 2.61-2 4.5a8.43 8.43 0 0 1 4 .5c-.556.383-.889.883-1 1.5z"/><path style="opacity:1" fill="#2d2804" d="M104.5 143.5h2c1.681 1.508 3.681 2.508 6 3v2c-3.415-.695-6.082-2.362-8-5z"/><path style="opacity:1" fill="#aeaeae" d="M221.5 143.5c1.474.936 2.474 2.27 3 4-1.946-.535-2.946-1.868-3-4z"/><path style="opacity:1" fill="#c5bf4f" d="M104.5 143.5c1.918 2.638 4.585 4.305 8 5-1.4.6-2.4 1.6-3 3a38.47 38.47 0 0 1-5.5-5c-.198 1.882-.698 3.548-1.5 5-.389-3.053.277-5.72 2-8z"/><path style="opacity:1" fill="#bbb45d" d="M288.5 146.5c1.644-.214 3.144.12 4.5 1 .585 1.498.085 2.498-1.5 3v-3c-1.291.237-2.291-.096-3-1z"/><path style="opacity:1" fill="#22210e" d="M109.5 151.5v2a21.127 21.127 0 0 1-9-1c.457-.798 1.124-1.131 2-1 .802-1.452 1.302-3.118 1.5-5a38.47 38.47 0 0 0 5.5 5z"/><path style="opacity:1" fill="#c3c3c3" d="M222.5 148.5c1.277 1.194 1.944 2.86 2 5l-1 5a25.879 25.879 0 0 1-1-10z"/><path style="opacity:1" fill="#d7d7d6" d="M277.5 152.5c.901.79 1.568 1.79 2 3-2.507-.132-3.174-1.132-2-3z"/><path style="opacity:1" fill="#183e1d" d="M175.5 127.5a367.071 367.071 0 0 0-21 12.5c-8.844 7.664-15.511 16.83-20 27.5-6.532 13.976-7.532 28.309-3 43 5.016 20.068 16.682 34.735 35 44 3.327 2.33 6.993 4.163 11 5.5 4.577.725 8.91 1.892 13 3.5 11.837 1.718 23.67 1.051 35.5-2 3.263-.118 5.763 1.215 7.5 4-.59 1.299-1.59 2.132-3 2.5-13.831 5.008-28.164 6.841-43 5.5-29.839-5.519-51.006-22.186-63.5-50-7.812-21.89-6.478-43.223 4-64a914.223 914.223 0 0 1 41.5-58c.996.086 1.829-.248 2.5-1 .36-1.921 1.194-3.588 2.5-5a247.35 247.35 0 0 1 3 10c-5.447-.045-5.947.955-1.5 3a3.647 3.647 0 0 1 1.5-1l4.5 7a28.834 28.834 0 0 1 6 4 3.647 3.647 0 0 1 1.5-1 89.418 89.418 0 0 0 14 4 112.05 112.05 0 0 1-21 2.5 53.398 53.398 0 0 0-7 3.5z"/><path style="opacity:1" fill="#2b2911" d="M301.5 152.5v1c-1.797 1.23-3.797 1.896-6 2a4.934 4.934 0 0 1-.5 3c-1.301-1.902-1.968-3.902-2-6 2.774 1.023 5.607 1.023 8.5 0z"/><path style="opacity:1" fill="#cbc743" d="M297.5 149.5c.948 1.478 2.281 2.478 4 3-2.893 1.023-5.726 1.023-8.5 0 .032 2.098.699 4.098 2 6a4.934 4.934 0 0 0 .5-3c2.203-.104 4.203-.77 6-2-.077 1.25-.744 2.083-2 2.5a12.93 12.93 0 0 0 5 .5v3h-1v4l-6 1c-3.609-3.546-5.942-7.879-7-13 .124-.607.457-.94 1-1 .06.543.393.876 1 1a16.076 16.076 0 0 1 5-2z"/><path style="opacity:1" fill="#d2ce49" d="M82.5 154.5h-21c.343 1.983-.324 3.317-2 4-.522-4.755 1.645-6.755 6.5-6 5.687.346 11.187 1.013 16.5 2z"/><path style="opacity:1" fill="#1a3a1f" d="M281.5 206.5a176.47 176.47 0 0 0-4.5-36c-1.981-1.859-2.981-4.192-3-7-1.978-1.316-3.478-.816-4.5 1.5l1.5 1.5a54.495 54.495 0 0 0 3 16 131.26 131.26 0 0 1-.5 28 136.992 136.992 0 0 1-9 21 16.332 16.332 0 0 1-4 2c4.069-6.142 7.069-12.809 9-20 2.277-6.34 3.277-13.007 3-20 .266-8.077-1.067-15.743-4-23-4.606-12.928-12.272-23.595-23-32 1.846.278 3.18-.389 4-2-.502-1.216-.835-2.383-1-3.5 3.114-4.26 2.448-7.76-2-10.5a3.647 3.647 0 0 0-1.5 1c.257-4.346-1.576-7.18-5.5-8.5a3.943 3.943 0 0 0 1-2 48.856 48.856 0 0 0-9.5-11.5 36.17 36.17 0 0 0-2.5-8l-2.5 12a64.735 64.735 0 0 0-6 9c-3.716 2.627-7.883 3.961-12.5 4 .17 1.322-.163 2.489-1 3.5a69.1 69.1 0 0 1 14.5 3.5c1.03.336 1.53 1.003 1.5 2-15.67-4-31.337-4-47 0a53.398 53.398 0 0 1 7-3.5 112.05 112.05 0 0 0 21-2.5 89.418 89.418 0 0 1-14-4 3.647 3.647 0 0 0-1.5 1 28.834 28.834 0 0 0-6-4l-4.5-7a3.647 3.647 0 0 0-1.5 1c-4.447-2.045-3.947-3.045 1.5-3a247.35 247.35 0 0 0-3-10c-1.306 1.412-2.14 3.079-2.5 5-.671.752-1.504 1.086-2.5 1a246.37 246.37 0 0 0 8.5-16c-2.863 21.798 6.637 32.632 28.5 32.5 15.29-3.934 21.624-13.6 19-29l1.5-1.5a2245.198 2245.198 0 0 0 44 67c9.896 16.219 13.396 33.552 10.5 52zm-94-96h4c5.4.687 10.9 1.354 16.5 2a258.546 258.546 0 0 1 8.5-2c-9.646 7.842-19.313 7.842-29 0zm26-11v2c-2.667-.667-2.667-1.333 0-2zm-23 0a2.428 2.428 0 0 0 .5 2c2.168-1.322 2.001-1.99-.5-2zm-4 6v1c-.838.342-1.172 1.008-1 2-2.424-2.508-4.09-5.508-5-9 .998-.087 2.165-.42 3.5-1l1 2c.718-.95 1.551-1.117 2.5-.5-.17 1.57-.503 3.403-1 5.5zm31-11a2.429 2.429 0 0 0 .5 2c3.41-1.374 3.243-2.04-.5-2zm-11-3c1.006.438 1.006 1.104 0 2-3.595 1.35-4.928 4.017-4 8-.667 0-1-.333-1-1a12.93 12.93 0 0 0-.5-5c-.671-.752-1.504-1.086-2.5-1v-2c2.911 1.484 5.578 1.15 8-1zm6-2c.841 1.88 1.175 3.88 1 6-1.585-.974-2.585-2.474-3-4.5.544-.717 1.211-1.217 2-1.5zm-22-1c-.855 2.32-.522 4.654 1 7 1.09-.891 1.09-1.891 0-3 2.262-1.53 1.928-2.863-1-4zm16 1c1.478.262 2.811-.071 4-1-1.74-1.31-3.073-.976-4 1z"/><path style="opacity:1" fill="#f1f6e0" d="M216.5 106.5h1v3c-.667 0-1 .333-1 1a258.546 258.546 0 0 0-8.5 2c-5.6-.646-11.1-1.313-16.5-2 8.085.401 16.085-.099 24-1.5.752-.671 1.086-1.504 1-2.5z"/><path style="opacity:1" fill="#f7f3df" d="M186.5 106.5h1a2.428 2.428 0 0 0 .5 2 19.602 19.602 0 0 1 3.5 2h-4c0-.667-.333-1-1-1 0-.667-.333-1-1-1-.172-.992.162-1.658 1-2z"/><path style="opacity:1" fill="#8f8d4e" d="M201.5 105.5h1c4.397 2.286 9.064 2.62 14 1 .086.996-.248 1.829-1 2.5a106.884 106.884 0 0 1-24 1.5 19.602 19.602 0 0 0-3.5-2 2.428 2.428 0 0 1-.5-2c4.936 1.62 9.603 1.286 14-1z"/><path style="opacity:1" fill="#4f7641" d="M196.5 99.5a22.755 22.755 0 0 0 4 5c0 .667.333 1 1 1-4.397 2.286-9.064 2.62-14 1h-1v-1a334.56 334.56 0 0 0 10-6z"/><path style="opacity:1" fill="#4d7141" d="M207.5 99.5c-.131.876.202 1.543 1 2a54.713 54.713 0 0 1 9 4v1h-1c-4.936 1.62-9.603 1.286-14-1-.172-.992.162-1.658 1-2 1.694-1.027 3.027-2.361 4-4z"/><path style="opacity:1" fill="#d7e2d1" d="M201.5 100.5c0 .667.333 1 1 1l1 2c-.838.342-1.172 1.008-1 2h-1c-.667 0-1-.333-1-1-.268-1.599.066-2.932 1-4z"/><path style="opacity:1" fill="#2a2a1f" d="M198.5 94.5c.996-.086 1.829.248 2.5 1 .494 1.634.66 3.3.5 5-.934 1.068-1.268 2.401-1 4a22.755 22.755 0 0 1-4-5 5.575 5.575 0 0 0-1-3c.392-2.371 1.392-3.038 3-2z"/><path style="opacity:1" fill="#38382f" d="M206.5 93.5c.961 1.765 1.295 3.765 1 6-.973 1.639-2.306 2.973-4 4l-1-2c-.928-3.983.405-6.65 4-8z"/><path style="opacity:1" fill="#3f4138" d="M199.5 87.5h3c.667 0 1 .333 1 1a2.429 2.429 0 0 0 .5 2c.671-.752 1.504-1.086 2.5-1v2c-2.422 2.15-5.089 2.484-8 1 0-.667-.333-1-1-1 1.452-.802 3.118-1.302 5-1.5a81.216 81.216 0 0 1-3-2.5z"/><path style="opacity:1" fill="#211e03" d="M303.5 159.5c-2.699-.034-5.199.633-7.5 2l-.5-1a17.54 17.54 0 0 1 6-3c1.022.355 1.689 1.022 2 2z"/><path style="opacity:1" fill="#6b6b6b" d="M248.5 156.5c-.838.342-1.172 1.008-1 2-1.523-2.01-3.356-2.344-5.5-1-.818 2.727-.652 5.394.5 8a44.093 44.093 0 0 1 2-3c.273 2.458-.727 4.125-3 5a624.355 624.355 0 0 0-2-10c.374-2.45 1.874-3.45 4.5-3 2.008-.193 3.508.474 4.5 2z"/><path style="opacity:1" fill="#eee912" d="M307.5 146.5c2.473 3.958 4.139 8.291 5 13a294.858 294.858 0 0 1 28-1 52.53 52.53 0 0 1 2 14c-7.68 1.389-14.68 4.056-21 8a314.67 314.67 0 0 0-1.5 30 309.98 309.98 0 0 0 22.5 9c.677 5.142-.99 9.309-5 12.5l2 1c-4.752.773-9.419.607-14-.5a361.556 361.556 0 0 0-15-3l-1-2.5c1.209-3.514 1.875-6.847 2-10l-.5-2.5c-.216 1.884-.883 3.551-2 5a11.596 11.596 0 0 1 .5-7v-1c1.479-2.643 1.146-5.143-1-7.5l2.5-2.5c2.454-7.829 1.954-15.329-1.5-22.5a93.497 93.497 0 0 0-11-1.5c-.172 1.992.495 3.658 2 5-.977 6.162-.644 12.162 1 18l1 2c-.992-.172-1.658.162-2 1h-1c-.817 2.469-1.317 5.135-1.5 8-.273 1.829-1.107 3.329-2.5 4.5a32.448 32.448 0 0 0 6 2.5 71.254 71.254 0 0 0-4 2c-1.333 0-2 .667-2 2-.705 3.713-2.705 6.713-6 9 1.454 1.763 1.12 3.097-1 4-1.446-.671-2.112-1.838-2-3.5.577-2.137.91-4.304 1-6.5 1.632-.325 2.632-1.325 3-3a54.631 54.631 0 0 0 3-19v-2c1.432-8.091 1.099-16.258-1-24.5l1-1.5c2.177 1.004 2.511.338 1-2l1-1a20.225 20.225 0 0 1 4.5 3c3.514-1.295 7.014-1.295 10.5 0l3-3c-.774-1.211-1.607-1.211-2.5 0-2.875-3.042-4.208-6.709-4-11-.417-1.256-1.25-1.923-2.5-2v-3a12.93 12.93 0 0 1-5-.5c1.256-.417 1.923-1.25 2-2.5v-1c-1.719-.522-3.052-1.522-4-3 1.548-.321 2.215-1.321 2-3-1.175.219-2.175-.114-3-1a6.846 6.846 0 0 0 1-4h-3a18.453 18.453 0 0 0-.5-6c-2.163-1.641-3.663-3.641-4.5-6a188.071 188.071 0 0 0-10-13.5c2.974-2.45 5.141-1.95 6.5 1.5.667-1.333 1.333-1.333 2 0 1.041-.971 1.874-1.971 2.5-3 3.21-2.881 6.876-4.048 11-3.5l-1-1c2.364-3.271 5.531-5.438 9.5-6.5 4.376 3.83 5.876 8.497 4.5 14-1.603-4.96-3.937-5.294-7-1 2.256.921 3.256 2.588 3 5-1.624.14-2.79-.527-3.5-2a4.457 4.457 0 0 0-1.5 2c2.933 2.238 2.599 3.238-1 3a4.934 4.934 0 0 1-.5 3c-1.734-1.138-3.568-1.638-5.5-1.5a32.065 32.065 0 0 0 4 2.5c-2.675 3.785-2.341 7.285 1 10.5l-2 2a47.141 47.141 0 0 1 6 5.5z"/><path style="opacity:1" fill="#abaa40" d="M335.5 157.5c2.107-.968 4.441-1.302 7-1a51.569 51.569 0 0 1 1 7c-1.574-1.602-2.241-3.602-2-6h-6z"/><path style="opacity:1" fill="#272408" d="M97.5 159.5a31.902 31.902 0 0 1 6-1.5 12.403 12.403 0 0 1-4-2.5l1-1a88.515 88.515 0 0 1 7 3.5 32.448 32.448 0 0 1-6 2.5 32.065 32.065 0 0 1 4 2.5c-2.345.17-4.679-.163-7-1-.752-.671-1.086-1.504-1-2.5z"/><path style="opacity:1" fill="#dad63f" d="M307.5 142.5a50.546 50.546 0 0 1 6 12c-.086.996.248 1.829 1 2.5 6.992.5 13.992.666 21 .5h6c-.241 2.398.426 4.398 2 6 .817 2.331 1.484 4.831 2 7.5-7.502 4.227-15.502 7.394-24 9.5 6.32-3.944 13.32-6.611 21-8a52.53 52.53 0 0 0-2-14c-9.354-.11-18.688.223-28 1-.861-4.709-2.527-9.042-5-13v-4z"/><path style="opacity:1" fill="#9b9b9b" d="M230.5 169.5c-5.333.667-5.333 1.333 0 2-1.419.951-3.085 1.284-5 1a43.117 43.117 0 0 1 1-13 21.127 21.127 0 0 1 1 9c1.291-.237 2.291.096 3 1z"/><path style="opacity:1" fill="#173f1c" d="M281.5 206.5c-.952 10.523-4.285 20.189-10 29-1.175-.219-2.175.114-3 1l-5 8a63.91 63.91 0 0 1-5.5 1 20.2 20.2 0 0 1-1.5 6c-1.299-.59-2.132-1.59-2.5-3-.576 3.041-1.742 5.708-3.5 8l-5-2c-1.083-.865-1.249-1.865-.5-3 4.544-2.616 8.544-5.949 12-10a50.656 50.656 0 0 0 3.5-8 16.332 16.332 0 0 0 4-2 136.992 136.992 0 0 0 9-21 131.26 131.26 0 0 0 .5-28 54.495 54.495 0 0 1-3-16l-1.5-1.5c1.022-2.316 2.522-2.816 4.5-1.5.019 2.808 1.019 5.141 3 7a176.47 176.47 0 0 1 4.5 36z"/><path style="opacity:1" fill="#cac94a" d="M59.5 158.5a32.438 32.438 0 0 0 .5 8c1.417.578 2.25 1.578 2.5 3a9.173 9.173 0 0 1-4.5-2c-.32-3.22.18-6.22 1.5-9z"/><path style="opacity:1" fill="#201f02" d="M303.5 159.5h1v1c-.372 4.05-2.705 6.05-7 6v-2l6-1v-4z"/><path style="opacity:1" fill="#b9b34a" d="M93.5 166.5c1.599-.268 2.932.066 4 1-2.597.221-2.597.721 0 1.5l-3 2.5c4.255 2.365 3.921 3.365-1 3v-8z"/><path style="opacity:1" fill="#c3bf52" d="M304.5 160.5c.951 1.419 1.284 3.085 1 5a892.751 892.751 0 0 1-6 4c-.282-1.278-.949-2.278-2-3 4.295.05 6.628-1.95 7-6z"/><path style="opacity:1" fill="#b5b5b5" d="M222.5 159.5c1.3 1.723 1.967 3.89 2 6.5l-1 6.5a43.117 43.117 0 0 1-1-13z"/><path style="opacity:1" fill="#838281" d="M54.5 164.5c-.175 2.121.159 4.121 1 6-1.256.039-2.256-.461-3-1.5a36.28 36.28 0 0 1 2-4.5z"/><path style="opacity:1" fill="#424242" d="M162.5 159.5a26.75 26.75 0 0 1 10 2c-1.559 1.631-3.559 2.464-6 2.5a4.934 4.934 0 0 0 3 .5v4h3v3h-14v-3h3v-4a4.934 4.934 0 0 0 3-.5c-6.644-.396-7.31-1.896-2-4.5z"/><path style="opacity:1" fill="#2d2a0d" d="M305.5 165.5c.872 1.112.872 2.446 0 4a7.293 7.293 0 0 0 2 3l-1 1a19.372 19.372 0 0 0-8-1c-.237-1.291.096-2.291 1-3a892.751 892.751 0 0 0 6-4z"/><path style="opacity:1" fill="#8d8d8d" d="M240.5 168.5c1.086.12 1.753.787 2 2l-1 2c-.929-1.189-1.262-2.522-1-4z"/><path style="opacity:1" fill="#a1a1a1" d="M239.5 169.5c-2.667.667-2.667 1.333 0 2-.709.904-1.709 1.237-3 1v-4c1.291-.237 2.291.096 3 1z"/><path style="opacity:1" fill="#d2cd5a" d="M103.5 171.5a18.453 18.453 0 0 1-.5 6c-.383.556-.883.889-1.5 1a24.93 24.93 0 0 1-8-1v-2a54.855 54.855 0 0 1 7 2c1.083-.865 1.249-1.865.5-3a20.495 20.495 0 0 1-3.5-2.5 18.453 18.453 0 0 1 6-.5z"/><path style="opacity:1" fill="#484848" d="M170.5 176.5c.086-.996-.248-1.829-1-2.5a60.931 60.931 0 0 0-11-.5c3.896-1.001 8.563-1.334 14-1 .271 1.88-.396 3.213-2 4z"/><path style="opacity:1" fill="#0d0d0d" d="M158.5 173.5a60.931 60.931 0 0 1 11 .5c.752.671 1.086 1.504 1 2.5-.17 1.322.163 2.489 1 3.5 2.966.895 5.633.395 8-1.5.697 3.877 1.364 7.71 2 11.5-1.553 2.14-2.553 1.973-3-.5-4.153-.666-8.487-.999-13-1-4.722.008-9.055.675-13 2-.06.543-.393.876-1 1a36.875 36.875 0 0 1-1-12 5.727 5.727 0 0 1 3 1c2.864.436 5.197-.397 7-2.5a6.547 6.547 0 0 0-3-3c.556-.383.889-.883 1-1.5z"/><path style="opacity:1" fill="#bcbcbd" d="M348.5 171.5c2.057.457 2.057 1.457 0 3v-3z"/><path style="opacity:1" fill="#22200c" d="M97.5 167.5c3.469-.613 5.469.721 6 4a18.453 18.453 0 0 0-6 .5 20.495 20.495 0 0 0 3.5 2.5c.749 1.135.583 2.135-.5 3a54.855 54.855 0 0 0-7-2v-1c4.921.365 5.255-.635 1-3l3-2.5c-2.597-.779-2.597-1.279 0-1.5z"/><path style="opacity:1" fill="#020502" d="M134.5 167.5v9c-.904.709-1.237 1.709-1 3h11v11h-13c-.313 3.542.021 6.875 1 10v4a19.22 19.22 0 0 0-1 6c-4.532-14.691-3.532-29.024 3-43z"/><path style="opacity:1" fill="#626364" d="M282.5 172.5c1.112 2.099 1.779 4.433 2 7-1.663-1.938-2.329-4.272-2-7z"/><path style="opacity:1" fill="#241e04" d="M93.5 177.5a24.93 24.93 0 0 0 8 1v2l-8-1c-1.333-.667-1.333-1.333 0-2z"/><path style="opacity:1" fill="#989898" d="M267.5 177.5c.543.06.876.393 1 1-4.484 1.311-8.817 1.311-13 0 4.202.317 8.202-.017 12-1z"/><path style="opacity:1" fill="#bbb" d="M134.5 176.5c4.413 1.638 9.079 2.638 14 3-1.287 1.371-1.953 3.205-2 5.5.047 2.295.713 4.129 2 5.5-1.205 1.186-2.539 1.186-4 0v-11h-11c-.237-1.291.096-2.291 1-3z"/><path style="opacity:1" fill="#c8c8c8" d="M150.5 179.5c1.447-1.385 2.447-1.052 3 1a5.727 5.727 0 0 0-3-1z"/><path style="opacity:1" fill="#454545" d="M182.5 178.5c.996-.086 1.829.248 2.5 1a30.485 30.485 0 0 1 0 11 3.647 3.647 0 0 1-1.5 1 43.117 43.117 0 0 1-1-13z"/><path style="opacity:1" fill="#161616" d="M186.5 179.5h10c.315 3.871-.018 7.538-1 11-2.891.903-5.891 1.236-9 1v-12z"/><path style="opacity:1" fill="#c3c26a" d="m93.5 179.5 8 1v6h-1v-5h-7v-2z"/><path style="opacity:1" fill="#686868" d="M186.5 179.5c3.462-.982 7.129-1.315 11-1a43.117 43.117 0 0 1-1 13c-.607-.124-.94-.457-1-1 .982-3.462 1.315-7.129 1-11h-10z"/><path style="opacity:1" fill="#21201b" d="M348.5 171.5v3a1119.214 1119.214 0 0 0-24.5 10c-.5 7.993-.666 15.993-.5 24 2.203.104 4.203.77 6 2 1.014 1.174 2.347 1.84 4 2a197.77 197.77 0 0 0 15 5c-.2 3.13-.866 6.13-2 9-.934 1.068-1.268 2.401-1 4 .004 3.736-1.329 6.736-4 9-8.357-.941-16.69-1.941-25-3a36.602 36.602 0 0 0-4 7c-.838.342-1.172 1.008-1 2a77.075 77.075 0 0 1-7 12.5c.881.708 1.547 1.542 2 2.5.238 1.904 1.238 3.238 3 4a40.338 40.338 0 0 1 10 11c1.648 2.372.981 3.706-2 4 .073-1.527-.594-2.527-2-3a400.925 400.925 0 0 1-15-18.5 119.217 119.217 0 0 0 12-24.5 108.444 108.444 0 0 0 28 1 40.2 40.2 0 0 0 4-13c-.355-1.022-1.022-1.689-2-2a309.98 309.98 0 0 1-22.5-9 314.67 314.67 0 0 1 1.5-30c8.498-2.106 16.498-5.273 24-9.5-.516-2.669-1.183-5.169-2-7.5a51.569 51.569 0 0 0-1-7c-2.559-.302-4.893.032-7 1-7.008.166-14.008 0-21-.5-.752-.671-1.086-1.504-1-2.5h3c9.672-.209 19.339-.542 29-1 .785 6.04 1.785 12.04 3 18z"/><path style="opacity:1" fill="#080808" d="M148.5 179.5v11c-1.287-1.371-1.953-3.205-2-5.5.047-2.295.713-4.129 2-5.5z"/><path style="opacity:1" fill="#1f1c07" d="M92.5 181.5h8v5l-1 2c-5.773 1.564-8.106-.769-7-7z"/><path style="opacity:1" fill="#c2bf53" d="M93.5 183.5h6c-.2 3.85-2.034 4.85-5.5 3a4.932 4.932 0 0 1-.5-3z"/><path style="opacity:1" fill="#6d6d6d" d="M178.5 189.5c-8.751-.303-17.418.03-26 1 3.945-1.325 8.278-1.992 13-2 4.513.001 8.847.334 13 1z"/><path style="opacity:1" fill="#bebb5f" d="M92.5 181.5c-1.106 6.231 1.227 8.564 7 7v2a4.934 4.934 0 0 0-3 .5 20.515 20.515 0 0 1-2.5 4.5c-.72-1.612-.554-3.112.5-4.5-1.077-.47-2.077-.303-3 .5-.313-3.542.02-6.875 1-10z"/><path style="opacity:1" fill="#dad63f" d="M82.5 177.5c1.158 9.157 1.324 18.491.5 28-.383.556-.883.889-1.5 1a238.412 238.412 0 0 1 1-29z"/><path style="opacity:1" fill="#302c0a" d="M99.5 190.5c.801 1.542 1.134 3.208 1 5-.617.111-1.117.444-1.5 1 .263-1.451.096-2.784-.5-4a7.468 7.468 0 0 0-2 3c-.814 1.773-2.148 2.273-4 1.5-.906-1.699-1.24-3.533-1-5.5.923-.803 1.923-.97 3-.5-1.054 1.388-1.22 2.888-.5 4.5a20.515 20.515 0 0 0 2.5-4.5 4.934 4.934 0 0 1 3-.5z"/><path style="opacity:1" fill="#b2ae54" d="M100.5 195.5v2c-.904.709-1.237 1.709-1 3h-6c1.542-.663 3.209-1.33 5-2-.442-1.239-1.11-2.239-2-3a7.468 7.468 0 0 1 2-3c.596 1.216.763 2.549.5 4 .383-.556.883-.889 1.5-1z"/><path style="opacity:1" fill="#99989b" d="M144.5 190.5c-3.798.983-7.798 1.317-12 1v9c-.979-3.125-1.313-6.458-1-10h13z"/><path style="opacity:1" fill="#212017" d="M292.5 183.5a86.749 86.749 0 0 1 1 18v2a511.319 511.319 0 0 1-6 21c-1.676-.683-2.343-2.017-2-4 .904-.709 1.237-1.709 1-3 2.63-11.153 3.63-22.486 3-34-.219-1.175.114-2.175 1-3a44.093 44.093 0 0 0 2 3z"/><path style="opacity:1" fill="#2d2a05" d="M302.5 194.5h5c3.473 2.063 3.806 4.563 1 7.5a18.453 18.453 0 0 1-6 .5l-1-2c-.175-2.121.159-4.121 1-6z"/><path style="opacity:1" fill="#231e03" d="M100.5 197.5a24.935 24.935 0 0 1-.5 7c-2.456-1.821-5.29-2.488-8.5-2 0-1.333.667-2 2-2h6c-.237-1.291.096-2.291 1-3z"/><path style="opacity:1" fill="#515151" d="M200.5 189.5h1a4.934 4.934 0 0 0 .5 3c2.64 2.395 5.14 4.895 7.5 7.5a755.108 755.108 0 0 0 42 38.5l-3 2-5-4a2516.517 2516.517 0 0 1-42.5-42 1556.543 1556.543 0 0 0-47.5 46.5c.556.383.889.883 1 1.5a8.941 8.941 0 0 1-4-3 1491.478 1491.478 0 0 0 47-45c2.584-.548 3.584-2.215 3-5z"/><path style="opacity:1" fill="#dbd73a" d="M309.5 211.5c.284-1.915-.049-3.581-1-5h-6v-4a18.453 18.453 0 0 0 6-.5c2.806-2.937 2.473-5.437-1-7.5l1-2h1c.543-.06.876-.393 1-1-.825-.886-1.825-1.219-3-1v-3c2.205-.346 2.372-1.013.5-2a15.894 15.894 0 0 1-6.5 1v6l1 2c-.841 1.879-1.175 3.879-1 6-1.644-5.838-1.977-11.838-1-18-1.505-1.342-2.172-3.008-2-5 3.688.281 7.355.781 11 1.5 3.454 7.171 3.954 14.671 1.5 22.5l-2.5 2.5c2.146 2.357 2.479 4.857 1 7.5z"/><path style="opacity:1" fill="#cecb5c" d="M302.5 196.5h6v4c-3.741.901-5.741-.432-6-4z"/><path style="opacity:1" fill="#aba86d" d="M301.5 192.5h7l-1 2h-5l-1-2z"/><path style="opacity:1" fill="#86852b" d="M307.5 187.5v3c1.175-.219 2.175.114 3 1-.124.607-.457.94-1 1-.709-.904-1.709-1.237-3-1-.268-1.599.066-2.932 1-4z"/><path style="opacity:1" fill="#1c1701" d="M307.5 187.5c-.934 1.068-1.268 2.401-1 4 1.291-.237 2.291.096 3 1h-8v-6c2.234.12 4.401-.213 6.5-1 1.872.987 1.705 1.654-.5 2z"/><path style="opacity:1" fill="#bdbe74" d="M302.5 187.5c2.412.194 3.412 1.527 3 4h-3v-4z"/><path style="opacity:1" fill="#292405" d="M300.5 178.5a109.345 109.345 0 0 0 9 3c-2.86.68-5.36 2.013-7.5 4-.507-1.496-.007-2.663 1.5-3.5-1.563-.759-2.563-1.926-3-3.5z"/><path style="opacity:1" fill="#1c1802" d="M302.5 202.5v4h6c-2.666.48-5.166 1.48-7.5 3a18.453 18.453 0 0 1-.5-6c.342-.838 1.008-1.172 2-1z"/><path style="opacity:1" fill="#25241f" d="M80.5 150.5a64.678 64.678 0 0 0 7 2 30.968 30.968 0 0 1 2-2c.17 1.322-.163 2.489-1 3.5a18.452 18.452 0 0 1-6 .5c-5.313-.987-10.813-1.654-16.5-2-4.855-.755-7.022 1.245-6.5 6-1.32 2.78-1.82 5.78-1.5 9a9.173 9.173 0 0 0 4.5 2 132.49 132.49 0 0 0 20 8 238.412 238.412 0 0 0-1 29c-4.948 1.153-9.615 2.819-14 5a40.072 40.072 0 0 0-10.5 4c-.013 4.773.82 9.44 2.5 14 9.31.998 18.643 1.332 28 1a31.686 31.686 0 0 1 2 6c-1.29-.558-2.123-1.558-2.5-3-.383.556-.883.889-1.5 1-.291-1.149-1.124-1.816-2.5-2-1.07.028-1.903.361-2.5 1-8.005.231-16.005.565-24 1l-3-16c.268-1.599-.066-2.932-1-4-.03-.997.47-1.664 1.5-2 8.19-2.943 16.024-5.776 23.5-8.5a4.94 4.94 0 0 0 1-2.5 115.5 115.5 0 0 1-.5-21 189.863 189.863 0 0 0-22.5-10c-.841-1.879-1.175-3.879-1-6a52.417 52.417 0 0 1 2-8.5 3.942 3.942 0 0 0-1-2c1.504-1.337 2.504-3.004 3-5 7.381-.163 14.715.337 22 1.5z"/><path style="opacity:1" fill="#1a1602" d="M307.5 216.5c-.06.543-.393.876-1 1-3.453-.866-5.786-2.866-7-6 3.053-.181 6.053-.348 9-.5-3.127 1.65-3.46 3.483-1 5.5z"/><path style="opacity:1" fill="#ccccd3" d="M329.5 210.5c1.88-.271 3.213.396 4 2-1.653-.16-2.986-.826-4-2z"/><path style="opacity:1" fill="#b6b344" d="M299.5 203.5h1a18.453 18.453 0 0 0 .5 6c2.334-1.52 4.834-2.52 7.5-3 .951 1.419 1.284 3.085 1 5v1c-1.604.787-2.271 2.12-2 4-2.46-2.017-2.127-3.85 1-5.5-2.947.152-5.947.319-9 .5v-8z"/><path style="opacity:1" fill="#d9d53e" d="M108.5 187.5c-.149 14.108 2.185 27.775 7 41-.958-.453-1.792-1.119-2.5-2l-4-8c-1.48-10.479-1.646-20.813-.5-31z"/><path style="opacity:1" fill="#ceccc8" d="M52.5 214.5c.934 1.068 1.268 2.401 1 4-1.61-1.165-1.943-2.499-1-4z"/><path style="opacity:1" fill="#1d1e1d" d="M268.5 206.5a21.435 21.435 0 0 0 1 7c-1.931 7.191-4.931 13.858-9 20-17.855 22.192-41.189 32.192-70 30-4.09-1.608-8.423-2.775-13-3.5-4.007-1.337-7.673-3.17-11-5.5 0-1.333.667-2 2-2 1.165-.996 1.832-2.329 2-4-.684-4.625-.684-9.125 0-13.5a137.011 137.011 0 0 1 8-11.5c9.633-.934 18.633-3.767 27-8.5a30.485 30.485 0 0 1 11 0c1.247 1.458 1.247 2.958 0 4.5a68.142 68.142 0 0 0-14 3c-1.333 0-2 .667-2 2a48.493 48.493 0 0 0-3 12c-1.333 0-2-.667-2-2-.834-1.248-2.167-1.915-4-2-1.545.011-2.878.344-4 1-1.679 1.5-3.012 3.333-4 5.5l1 1c-2.357 1.22-2.024 2.053 1 2.5 0 .667.333 1 1 1 1.16 1.703.493 2.369-2 2-1.322.17-2.489-.163-3.5-1-2.157 2.317-3.657 4.984-4.5 8-1.276.886-1.276 1.886 0 3 26.376 8.919 49.709 4.586 70-13 1-.333 1.667-1 2-2l3-2a79.019 79.019 0 0 0 13-20c.838-.342 1.172-1.008 1-2a898.69 898.69 0 0 1 3-10zm-81 27c1.122-.656 2.455-.989 4-1 1.833.085 3.166.752 4 2-2.088 1.836-3.421 4.169-4 7l-2-1v-1c.475-2.582-.192-4.582-2-6zm0 0v2c-.295 2.235.039 4.235 1 6v1l-2 1c-.667 0-1-.333-1-1-3.024-.447-3.357-1.28-1-2.5l-1-1c.988-2.167 2.321-4 4-5.5z"/><path style="opacity:1" fill="#dbdfdc" d="M265.5 216.5c.172.992-.162 1.658-1 2-1.531-1.425-1.198-2.091 1-2z"/><path style="opacity:1" fill="#cfcfcf" d="M286.5 217.5c.237 1.291-.096 2.291-1 3-1.315-1.395-.981-2.395 1-3z"/><path style="opacity:1" fill="#242724" d="M132.5 204.5c2.148-.111 2.481.556 1 2 3.312 12.292 8.978 23.292 17 33a8.941 8.941 0 0 0 4 3 100.783 100.783 0 0 0 14 10c-1.333 0-2 .667-2 2-18.318-9.265-29.984-23.932-35-44a19.22 19.22 0 0 1 1-6z"/><path style="opacity:1" fill="#202020" d="M220.5 225.5c-.073 1.527.594 2.527 2 3 1.927 2.637 2.427 5.637 1.5 9-4.426 4.054-8.426 3.721-12-1-.976-3.827-.143-7.16 2.5-10 1.144-1.6 2.311-3.267 3.5-5 1.481.971 2.315 2.304 2.5 4z"/><path style="opacity:1" fill="#2b260b" d="M305.5 224.5c-2.892-.221-5.559-1.054-8-2.5a8.43 8.43 0 0 1 4-.5c2.411.363 3.911-.637 4.5-3 .49 2.045.323 4.045-.5 6z"/><path style="opacity:1" fill="#333011" d="M103.5 222.5c1.406.473 2.073 1.473 2 3-2.236.889-4.236 2.222-6 4a20.058 20.058 0 0 0-3-6 13.115 13.115 0 0 1 7-1z"/><path style="opacity:1" fill="#ccc" d="M202.5 222.5c-.333 1-1 1.667-2 2 0-1.333.667-2 2-2z"/><path style="opacity:1" fill="#dbd63f" d="M293.5 203.5a54.631 54.631 0 0 1-3 19c-.368 1.675-1.368 2.675-3 3v-1a511.319 511.319 0 0 0 6-21z"/><path style="opacity:1" fill="#a8a8a8" d="M220.5 225.5c1.406.473 2.073 1.473 2 3-1.406-.473-2.073-1.473-2-3z"/><path style="opacity:1" fill="#cfcc3f" d="M67.5 211.5c-2.557 2.107-5.557 3.441-9 4-.23 4.505.437 8.839 2 13 9.395-.638 18.395.029 27 2-9.357.332-18.69-.002-28-1-1.68-4.56-2.513-9.227-2.5-14a40.072 40.072 0 0 1 10.5-4z"/><path style="opacity:1" fill="#ccc94e" d="M297.5 220.5c1.599-.268 2.932.066 4 1a8.43 8.43 0 0 0-4 .5c2.441 1.446 5.108 2.279 8 2.5l-2 2c-2.282-.989-4.615-1.489-7-1.5 1.658 1.663 3.658 2.496 6 2.5v3a24.93 24.93 0 0 1-8-1 31.147 31.147 0 0 1 2-2 9.108 9.108 0 0 1-1-5c0-1.333.667-2 2-2z"/><path style="opacity:1" fill="#c8c8c4" d="M346.5 226.5c.905 1.464.905 2.798 0 4h-1c-.268-1.599.066-2.932 1-4z"/><path style="opacity:1" fill="#e0dfe1" d="M278.5 229.5c1.125 1.152 1.125 2.152 0 3-.667 0-1-.333-1-1-.172-.992.162-1.658 1-2z"/><path style="opacity:1" fill="#cfcc3e" d="M342.5 219.5c.978.311 1.645.978 2 2a40.2 40.2 0 0 1-4 13c-9.356.878-18.689.545-28-1 4.134-.985 8.468-1.318 13-1 4.581 1.107 9.248 1.273 14 .5l-2-1c4.01-3.191 5.677-7.358 5-12.5z"/><path style="opacity:1" fill="#f0f2ec" d="M346.5 230.5c1.333.667 1.333.667 0 0z"/><path style="opacity:1" fill="#d9d447" d="M100.5 186.5h1c.915 8.96 1.248 17.96 1 27 1.225.652 1.892 1.819 2 3.5-.175 1.658-.842 2.991-2 4 .556.383.889.883 1 1.5a13.115 13.115 0 0 0-7 1 20.058 20.058 0 0 1 3 6c1.764-1.778 3.764-3.111 6-4 .282 1.278.949 2.278 2 3a17.419 17.419 0 0 0-8 3.5l3 1c-1.323.816-1.989 1.983-2 3.5a71.985 71.985 0 0 0-5-3.5c1.276-4.069.61-7.902-2-11.5-1.003-5.343-2.003-10.676-3-16 3.505-.194 3.838-1.194 1-3 3.21-.488 6.044.179 8.5 2 .497-2.31.663-4.643.5-7v-2c.134-1.792-.199-3.458-1-5v-2l1-2z"/><path style="opacity:1" fill="#292508" d="M102.5 213.5c1.651 6.342.984 7.009-2 2-1.145 1.276-1.145 2.609 0 4l-1 1c-1.77-5.174-2.937-4.841-3.5 1-1.301-1.865-1.635-3.865-1-6a24.96 24.96 0 0 1 7.5-2z"/><path style="opacity:1" fill="#292507" d="M98.5 205.5h3c.86 6.441-1.806 8.774-8 7 .825-.886 1.825-1.219 3-1v-3c-1.478.262-2.811-.071-4-1 2.13-.669 4.13-1.335 6-2z"/><path style="opacity:1" fill="#beb973" d="M97.5 207.5h3v3h-3v-3z"/><path style="opacity:1" fill="#2b2806" d="M303.5 226.5c.446 2.51-.22 4.51-2 6-2.991.334-5.324-.666-7-3a24.93 24.93 0 0 0 8 1v-3c-2.342-.004-4.342-.837-6-2.5 2.385.011 4.718.511 7 1.5z"/><path style="opacity:1" fill="#aeb0af" d="M80.5 233.5c.597-.639 1.43-.972 2.5-1 1.376.184 2.209.851 2.5 2-1.542-.801-3.209-1.134-5-1z"/><path style="opacity:1" fill="#838383" d="M187.5 233.5c1.808 1.418 2.475 3.418 2 6l-2-4v-2z"/><path style="opacity:1" fill="#29260f" d="M107.5 228.5c.107 2.403-.893 4.236-3 5.5 2.215.17 4.215.837 6 2-2.525 1.616-5.191 2.616-8 3 3.674-2.157 3.007-2.99-2-2.5.011-1.517.677-2.684 2-3.5l-3-1a17.419 17.419 0 0 1 8-3.5z"/><path style="opacity:1" fill="#cdc964" d="M294.5 229.5c1.676 2.334 4.009 3.334 7 3l-1 2c-1.467-.792-2.8-.792-4 0-1.129 2.029-.629 2.363 1.5 1 .667 3.667-.667 4.667-4 3-.684-1.979-.184-3.646 1.5-5-.457-.798-1.124-1.131-2-1-.237-1.291.096-2.291 1-3z"/><path style="opacity:1" fill="#2c2c2c" d="m187.5 235.5 2 4v1c0 .667-.333 1-1 1-.961-1.765-1.295-3.765-1-6z"/><path style="opacity:1" fill="#2a2608" d="M293.5 232.5c.876-.131 1.543.202 2 1-1.684 1.354-2.184 3.021-1.5 5 3.333 1.667 4.667.667 4-3-2.129 1.363-2.629 1.029-1.5-1 1.2-.792 2.533-.792 4 0 .375 3.985-1.625 6.318-6 7-.79-.901-1.79-1.568-3-2-.334-2.688.332-5.021 2-7z"/><path style="opacity:1" fill="#878588" d="M124.5 238.5c1.406.473 2.073 1.473 2 3-1.406-.473-2.073-1.473-2-3z"/><path style="opacity:1" fill="#f3f0ee" d="M315.5 240.5c1.333.667 1.333.667 0 0z"/><path style="opacity:1" fill="#2c2b24" d="M89.5 236.5a164.872 164.872 0 0 0 10 18.5 25.136 25.136 0 0 0-4 4.5 4739.89 4739.89 0 0 1-9.5 9 1660.287 1660.287 0 0 0-4.5 6.5 50.936 50.936 0 0 0 7 9.5c-.79.283-1.456.783-2 1.5a27.568 27.568 0 0 0 6 3.5c-.672.767-1.505 1.434-2.5 2A177.283 177.283 0 0 1 76.5 275a174.893 174.893 0 0 1 18-20.5 133.719 133.719 0 0 1-9-20c.617-.111 1.117-.444 1.5-1 .377 1.442 1.21 2.442 2.5 3z"/><path style="opacity:1" fill="#b2b2b2" d="m189.5 240.5 2 1c-.432 1.21-1.099 2.21-2 3 .172-.992-.162-1.658-1-2v-1c.667 0 1-.333 1-1z"/><path style="opacity:1" fill="#404040" d="M195.5 234.5c0 1.333.667 2 2 2a55.105 55.105 0 0 1-6 10.5c-2.712.826-5.045.326-7-1.5 2.493.369 3.16-.297 2-2l2-1c-.172.992.162 1.658 1 2 .901-.79 1.568-1.79 2-3 .579-2.831 1.912-5.164 4-7z"/><path style="opacity:1" fill="#ddd83c" d="M87.5 230.5c.996-.086 1.83.248 2.5 1 1.947 6.904 5.28 12.904 10 18 1.683 4.957.183 8.29-4.5 10a25.136 25.136 0 0 1 4-4.5 164.872 164.872 0 0 1-10-18.5 31.686 31.686 0 0 0-2-6z"/><path style="opacity:1" fill="#b5b261" d="M290.5 239.5h1c1.21.432 2.21 1.099 3 2-1.333 1-1.333 2 0 3 .131.876-.202 1.543-1 2a10.258 10.258 0 0 1-1.5-4c-.725 1.658-1.892 2.158-3.5 1.5a9.175 9.175 0 0 0 2-4.5z"/><path style="opacity:1" fill="#cfcfd0" d="M312.5 243.5c1.531 1.425 1.198 2.091-1 2-.172-.992.162-1.658 1-2z"/><path style="opacity:1" fill="#353215" d="M114.5 243.5a25.627 25.627 0 0 1-5 7c.063-1.16-.27-2.494-1-4-.825-.886-1.825-1.219-3-1 2.787-2.261 5.787-2.927 9-2z"/><path style="opacity:1" fill="#26220b" d="M290.5 239.5a9.175 9.175 0 0 1-2 4.5c1.608.658 2.775.158 3.5-1.5a10.258 10.258 0 0 0 1.5 4c.798-.457 1.131-1.124 1-2 .863-.963 1.53-.963 2 0l-2 4a18.654 18.654 0 0 1-7-3c-.543-.06-.876-.393-1-1 1.112-1.919 2.446-3.586 4-5z"/><path style="opacity:1" fill="#bfbd57" d="M114.5 243.5c1.291 1.042 1.291 2.208 0 3.5a2.428 2.428 0 0 0 2 .5 25.657 25.657 0 0 0-6 6c-1.779-1.17-2.779-2.836-3-5-.282-1.278-.949-2.278-2-3 1.175-.219 2.175.114 3 1 .73 1.506 1.063 2.84 1 4a25.627 25.627 0 0 0 5-7z"/><path style="opacity:1" fill="#97929c" d="M268.5 249.5c.073 1.527-.594 2.527-2 3-.073-1.527.594-2.527 2-3z"/><path style="opacity:1" fill="#26220c" d="M116.5 247.5c.667 0 1 .333 1 1a17.65 17.65 0 0 0-.5 6c1.337-1.265 2.837-1.765 4.5-1.5-2.28 2.304-4.946 3.804-8 4.5a18.155 18.155 0 0 1 2-5.5c-1.689.134-3.356.634-5 1.5a25.657 25.657 0 0 1 6-6z"/><path style="opacity:1" fill="#2b2807" d="M284.5 247.5a41.002 41.002 0 0 1 8 3.5 12.93 12.93 0 0 1-5 .5c-.215 1.679.452 2.679 2 3 .131.876-.202 1.543-1 2a40.796 40.796 0 0 1-6.5-4c.058-1.935.891-3.602 2.5-5z"/><path style="opacity:1" fill="#bcba6e" d="M287.5 251.5c-2.098 1.414-3.098.748-3-2 1.679-.215 2.679.452 3 2z"/><path style="opacity:1" fill="#cbc74b" d="M287.5 245.5a18.654 18.654 0 0 0 7 3 20.69 20.69 0 0 0-1 5h-3c-.667 0-1 .333-1 1-1.548-.321-2.215-1.321-2-3a12.93 12.93 0 0 0 5-.5 41.002 41.002 0 0 0-8-3.5l3-2z"/><path style="opacity:1" fill="#eee912" d="M97.5 159.5c-1.3 1.384-1.3 2.884 0 4.5-1.937.122-3.27.955-4 2.5v11c-1.333.667-1.333 1.333 0 2v2h-1c-.98 3.125-1.313 6.458-1 10-.24 1.967.094 3.801 1 5.5 1.852.773 3.186.273 4-1.5.89.761 1.558 1.761 2 3-1.791.67-3.458 1.337-5 2-1.333 0-2 .667-2 2 2.838 1.806 2.505 2.806-1 3 .997 5.324 1.997 10.657 3 16 2.61 3.598 3.276 7.431 2 11.5a71.985 71.985 0 0 1 5 3.5c-.541 3.795 1.125 5.795 5 6-1.596 2.799-.93 4.799 2 6 .221 2.164 1.221 3.83 3 5 1.644-.866 3.311-1.366 5-1.5a18.155 18.155 0 0 0-2 5.5 22.836 22.836 0 0 1 3 4c1 .333 1.667 1 2 2a128.686 128.686 0 0 0 3 5.5 10.21 10.21 0 0 1-2.5 4.5c-3.418-.766-6.918-.766-10.5 0v3c-2.908-.238-5.242.762-7 3-2.12-1.372-3.12-.705-3 2-2.266.359-4.1-.308-5.5-2a14.984 14.984 0 0 1-3.5 3c-.853-3.096-.186-5.929 2-8.5-2.073-.118-3.407-1.118-4-3 1.567-4.427 3.4-4.927 5.5-1.5.265-3.254 1.099-6.587 2.5-10 4.683-1.71 6.183-5.043 4.5-10-4.72-5.096-8.053-11.096-10-18-.67-.752-1.504-1.086-2.5-1-8.605-1.971-17.605-2.638-27-2-1.563-4.161-2.23-8.495-2-13 3.443-.559 6.443-1.893 9-4 4.385-2.181 9.052-3.847 14-5 .617-.111 1.117-.444 1.5-1 .824-9.509.658-18.843-.5-28a132.49 132.49 0 0 1-20-8c-.25-1.422-1.083-2.422-2.5-3a32.438 32.438 0 0 1-.5-8c1.676-.683 2.343-2.017 2-4h21a18.452 18.452 0 0 0 6-.5c.837-1.011 1.17-2.178 1-3.5l2-2c1.843-.746 3.176-2.079 4-4 .14-4.282 2.14-6.782 6-7.5l-1 1c.938 1.063 1.938 2.23 3 3.5-2.154 3.026-3.82 6.359-5 10a24.846 24.846 0 0 0-1 8z"/><path style="opacity:1" fill="#193b1f" d="M260.5 233.5a50.656 50.656 0 0 1-3.5 8c-3.456 4.051-7.456 7.384-12 10-.749 1.135-.583 2.135.5 3l5 2c1.758-2.292 2.924-4.959 3.5-8 .368 1.41 1.201 2.41 2.5 3a20.2 20.2 0 0 0 1.5-6 63.91 63.91 0 0 0 5.5-1l5-8c.825-.886 1.825-1.219 3-1-13.73 21.047-33.063 33.881-58 38.5-8.843.824-17.51.657-26-.5 14.836 1.341 29.169-.492 43-5.5 1.41-.368 2.41-1.201 3-2.5-1.737-2.785-4.237-4.118-7.5-4-11.83 3.051-23.663 3.718-35.5 2 28.811 2.192 52.145-7.808 70-30z"/><path style="opacity:1" fill="#c9c542" d="M117.5 248.5c.904.709 1.237 1.709 1 3 2.489-.202 4.823.298 7 1.5l-1 1c1.978 2.497 2.478 5.331 1.5 8.5-.816 1.323-1.983 1.989-3.5 2 3.352-2.55 3.685-5.383 1-8.5-3.579.063-5.912 1.896-7 5.5a22.836 22.836 0 0 0-3-4c3.054-.696 5.72-2.196 8-4.5-1.663-.265-3.163.235-4.5 1.5a17.65 17.65 0 0 1 .5-6z"/><path style="opacity:1" fill="#90908f" d="M263.5 255.5c-.473 1.406-1.473 2.073-3 2 .473-1.406 1.473-2.073 3-2z"/><path style="opacity:1" fill="#e2e2e4" d="M258.5 257.5h2c-.333 1-1 1.667-2 2v-2z"/><path style="opacity:1" fill="#e6e129" d="M295.5 222.5a9.108 9.108 0 0 0 1 5 31.147 31.147 0 0 0-2 2c-.904.709-1.237 1.709-1 3-1.668 1.979-2.334 4.312-2 7h-1c-1.554 1.414-2.888 3.081-4 5 .124.607.457.94 1 1l-3 2c-1.609 1.398-2.442 3.065-2.5 5a40.796 40.796 0 0 0 6.5 4c.798-.457 1.131-1.124 1-2 0-.667.333-1 1-1-.153 4.658-1.986 5.658-5.5 3l-1.5 1.5c1.966 1.347 2.299 2.847 1 4.5-.955-2.956-2.955-4.956-6-6-1.078 1.975-.745 3.808 1 5.5-1.932.138-3.766-.362-5.5-1.5-.383.556-.883.889-1.5 1-1 .333-1.667 1-2 2 1.543 2.428 2.543 5.094 3 8-2.803-.461-5.137-1.795-7-4-1.21.432-2.21 1.099-3 2-2.19.874-3.19 2.541-3 5 .37 3.686-.963 4.686-4 3-.473-1.406-1.473-2.073-3-2 1.384-1.301 2.884-1.301 4.5 0 1.328-4.838-.506-7.171-5.5-7 15.708-11.042 27.375-25.375 35-43a29.495 29.495 0 0 1-1 6.5c-.112 1.662.554 2.829 2 3.5 2.12-.903 2.454-2.237 1-4 3.295-2.287 5.295-5.287 6-9z"/><path style="opacity:1" fill="#1e1a02" d="M122.5 264.5c-1.459.067-2.792-.266-4-1-.333-1-1-1.667-2-2 1.088-3.604 3.421-5.437 7-5.5 2.685 3.117 2.352 5.95-1 8.5z"/><path style="opacity:1" fill="#ccc95a" d="M120.5 257.5c5.145.982 5.312 2.649.5 5-3.073-1.248-3.24-2.915-.5-5z"/><path style="opacity:1" fill="#1f1b04" d="M284.5 262.5h-1c-3.747-4.129-4.413-3.795-2 1a7.492 7.492 0 0 1-5 .5 14.698 14.698 0 0 1 3 3.5h-2c-1.995-1.804-3.662-3.804-5-6 .617-.111 1.117-.444 1.5-1 1.734 1.138 3.568 1.638 5.5 1.5-1.745-1.692-2.078-3.525-1-5.5 3.045 1.044 5.045 3.044 6 6z"/><path style="opacity:1" fill="#9c9ba1" d="M306.5 260.5c1.762.762 2.762 2.096 3 4-1.762-.762-2.762-2.096-3-4z"/><path style="opacity:1" fill="#bcb765" d="M272.5 261.5c1.338 2.196 3.005 4.196 5 6l-2 1c-1.333-2-3-3.667-5-5 .333-1 1-1.667 2-2z"/><path style="opacity:1" fill="#b9b548" d="M283.5 262.5c-.611 2.211-1.944 3.878-4 5a14.698 14.698 0 0 0-3-3.5 7.492 7.492 0 0 0 5-.5c-2.413-4.795-1.747-5.129 2-1z"/><path style="opacity:1" fill="#dcdbd9" d="M242.5 267.5c.342-.838 1.008-1.172 2-1v2c0 .667-.333 1-1 1 .172-.992-.162-1.658-1-2z"/><path style="opacity:1" fill="#23221b" d="M285.5 220.5c-.343 1.983.324 3.317 2 4v1c-7.625 17.625-19.292 31.958-35 43a134.976 134.976 0 0 1-20 9c.131-.876-.202-1.543-1-2a9.108 9.108 0 0 1-5 1c1.714-1.238 3.714-1.905 6-2 .992.172 1.658-.162 2-1a54.343 54.343 0 0 1 9-4c.667 0 1-.333 1-1 1.21-.432 2.21-1.099 3-2a59.648 59.648 0 0 0 11-7c1-.333 1.667-1 2-2 1.527.073 2.527-.594 3-2a6.547 6.547 0 0 1 3-3c1.406-.473 2.073-1.473 2-3 7.488-8.649 13.155-18.316 17-29z"/><path style="opacity:1" fill="#211e01" d="M134.5 267.5c-.151 3.814-2.151 5.481-6 5h-1c-2.188-3.155-1.521-5.989 2-8.5 2.272.077 3.938 1.243 5 3.5z"/><path style="opacity:1" fill="#cdc858" d="M130.5 265.5c1.38.462 2.047 1.462 2 3-1.062 3.466-2.729 3.8-5 1a514.367 514.367 0 0 0 3-4z"/><path style="opacity:1" fill="#232106" d="M139.5 270.5c1 .333 1.667 1 2 2 1.075 4.438-.592 6.438-5 6-1.527.073-2.527-.594-3-2-.333-4.333 1.667-6.333 6-6z"/><path style="opacity:1" fill="#a5a54f" d="M134.5 267.5a19.348 19.348 0 0 0 5 3c-4.333-.333-6.333 1.667-6 6h-1v-3c-1.599.268-2.932-.066-4-1 3.849.481 5.849-1.186 6-5z"/><path style="opacity:1" fill="#292404" d="M270.5 263.5c2 1.333 3.667 3 5 5 .131 2.867-1.203 4.533-4 5-2.414-1.411-4.081-3.411-5-6 1.863 2.205 4.197 3.539 7 4-.457-2.906-1.457-5.572-3-8z"/><path style="opacity:1" fill="#c3bf5d" d="M266.5 267.5c.919 2.589 2.586 4.589 5 6 0 .667-.333 1-1 1h-1c-1.436 1.819-3.103 2.152-5 1 2.476-3.353 1.976-3.686-1.5-1-.445-2.094.388-3.594 2.5-4.5a2.428 2.428 0 0 0-2-.5c.79-.901 1.79-1.568 3-2z"/><path style="opacity:1" fill="#2a2504" d="M263.5 269.5a2.428 2.428 0 0 1 2 .5c-2.112.906-2.945 2.406-2.5 4.5 3.476-2.686 3.976-2.353 1.5 1 1.897 1.152 3.564.819 5-1-.8 2.182-2.3 3.849-4.5 5a208.311 208.311 0 0 0-4.5-5c-.19-2.459.81-4.126 3-5z"/><path style="opacity:1" fill="#ede816" d="M299.5 203.5v8c1.214 3.134 3.547 5.134 7 6 .607-.124.94-.457 1-1-.271-1.88.396-3.213 2-4a11.596 11.596 0 0 0-.5 7c1.117-1.449 1.784-3.116 2-5l.5 2.5c-.125 3.153-.791 6.486-2 10l1 2.5c5.14.918 10.14 1.918 15 3-4.532-.318-8.866.015-13 1a119.217 119.217 0 0 1-12 24.5 400.925 400.925 0 0 0 15 18.5v4a23.776 23.776 0 0 0-6 2.5c-1.141.741-1.141 1.575 0 2.5l-2 1a88.088 88.088 0 0 0-13-5c-1.409-4.871-4.409-6.204-9-4a4.934 4.934 0 0 0-3 .5 230.825 230.825 0 0 1-20.5 15.5 29.13 29.13 0 0 0 .5 9 47.134 47.134 0 0 0 3 17 42.532 42.532 0 0 0-9.5 3l-3.5-.5c1.333-1.84 1.166-2.34-.5-1.5-1.487-.753-1.654-1.586-.5-2.5-1.039-1.617-2.039-2.783-3-3.5 1.174-2.199.674-4.199-1.5-6-1.065 1.896-1.898 2.063-2.5.5 3.077-1.635 3.577-3.802 1.5-6.5-1.297 1.284-2.464 1.117-3.5-.5a4.934 4.934 0 0 1 3-.5c-.009-2.161-.676-3.494-2-4a18.184 18.184 0 0 1 2-3.5l-2-3c.336-1.03 1.003-1.53 2-1.5.235.597.735.93 1.5 1a78.027 78.027 0 0 0 7.5-4 5.727 5.727 0 0 1 1-3 18.453 18.453 0 0 0 6-.5c1.99-1.751 4.323-2.751 7-3 1.655-1.444 2.322-3.278 2-5.5.667 0 1-.333 1-1 2.797-.467 4.131-2.133 4-5l2-1h2c2.056-1.122 3.389-2.789 4-5h1c1.299-1.653.966-3.153-1-4.5l1.5-1.5c3.514 2.658 5.347 1.658 5.5-3h3a20.69 20.69 0 0 1 1-5l2-4c-.47-.963-1.137-.963-2 0-1.333-1-1.333-2 0-3 4.375-.682 6.375-3.015 6-7l1-2c1.78-1.49 2.446-3.49 2-6l2-2c.823-1.955.99-3.955.5-6-.589 2.363-2.089 3.363-4.5 3-1.068-.934-2.401-1.268-4-1a71.254 71.254 0 0 1 4-2 32.448 32.448 0 0 1-6-2.5c1.393-1.171 2.227-2.671 2.5-4.5.183-2.865.683-5.531 1.5-8z"/><path style="opacity:1" fill="#b1ad8f" d="M301.5 213.5c.886-1.276 1.886-1.276 3 0-.925 1.062-1.925 1.062-3 0z"/><path style="opacity:1" fill="#ddd838" d="M252.5 268.5a5.576 5.576 0 0 1-1 3 42.615 42.615 0 0 0-12 6.5c-3.67.548-7.337 1.048-11 1.5 1.171-.845 2.505-1.511 4-2a134.976 134.976 0 0 0 20-9z"/><path style="opacity:1" fill="#d8d441" d="M260.5 274.5a208.311 208.311 0 0 1 4.5 5c2.2-1.151 3.7-2.818 4.5-5h1c.322 2.222-.345 4.056-2 5.5-2.677.249-5.01 1.249-7 3a18.453 18.453 0 0 1-6 .5c-1.267-5.29-4.1-6.29-8.5-3-.298 5.538 2.202 7.538 7.5 6a78.027 78.027 0 0 1-7.5 4c-.765-.07-1.265-.403-1.5-1a2.428 2.428 0 0 0 2-.5 14.444 14.444 0 0 1-2.5-5.5c-1.011-.837-2.178-1.17-3.5-1-.667 0-1 .333-1 1-1.086.12-1.753.787-2 2 .377 2.786 1.711 4.786 4 6-3.279 2.073-6.945 3.406-11 4-.6-1.4-1.6-2.4-3-3 .789-.283 1.456-.783 2-1.5-5.895.774-6.229-.226-1-3a18.453 18.453 0 0 0-6-.5l1 8c-.617-.111-1.117-.444-1.5-1a11.105 11.105 0 0 1-4.5 3v-3c3.18.324 4.347-1.01 3.5-4-2.041-.923-4.208-1.256-6.5-1a41.73 41.73 0 0 1 1 9c-.617-.111-1.117-.444-1.5-1-.789-3.591-.622-7.091.5-10.5l11-1a99.664 99.664 0 0 1 18-5.5 8.43 8.43 0 0 1 .5-4 4.457 4.457 0 0 0 1.5 2c2.023-1.673 4.356-2.34 7-2a54.7 54.7 0 0 0 4 5.5c2.335.507 4.335-.16 6-2-3.046 1.262-5.38.428-7-2.5 3.037 1.686 4.37.686 4-3z"/><path style="opacity:1" fill="#2c2804" d="M255.5 283.5a5.727 5.727 0 0 0-1 3c-5.298 1.538-7.798-.462-7.5-6 4.4-3.29 7.233-2.29 8.5 3z"/><path style="opacity:1" fill="#dad44f" d="M248.5 280.5c4-.667 5.667 1 5 5-4 .667-5.667-1-5-5z"/><path style="opacity:1" fill="#262106" d="M253.5 275.5c1.527-.073 2.527.594 3 2 1.62 2.928 3.954 3.762 7 2.5-1.665 1.84-3.665 2.507-6 2a54.7 54.7 0 0 1-4-5.5v-1z"/><path style="opacity:1" fill="#adab6c" d="M241.5 282.5c1.306.967 1.973 2.301 2 4h-3v-3c0-.667.333-1 1-1z"/><path style="opacity:1" fill="#272407" d="M241.5 282.5c1.322-.17 2.489.163 3.5 1a14.444 14.444 0 0 0 2.5 5.5 2.428 2.428 0 0 1-2 .5c-.927-1.976-2.26-2.309-4-1a5.576 5.576 0 0 1 1 3c-2.289-1.214-3.623-3.214-4-6 .247-1.213.914-1.88 2-2v3h3c-.027-1.699-.694-3.033-2-4z"/><path style="opacity:1" fill="#dcd939" d="M315.5 276.5c1.406.473 2.073 1.473 2 3-3.34 3.672-6.673 7.339-10 11a178.34 178.34 0 0 1-22-13c4.591-2.204 7.591-.871 9 4a88.088 88.088 0 0 1 13 5l2-1c-1.141-.925-1.141-1.759 0-2.5a23.776 23.776 0 0 1 6-2.5v-4z"/><path style="opacity:1" fill="#201c04" d="M232.5 285.5a8.43 8.43 0 0 1 4 .5c-.771 2.44-.938 4.94-.5 7.5a16.086 16.086 0 0 1-2.5-5 6.802 6.802 0 0 0-3-1.5c.916-.278 1.582-.778 2-1.5z"/><path style="opacity:1" fill="#282722" d="M319.5 275.5c1.946.754 2.779 2.088 2.5 4L309.5 294c-1 .667-2 .667-3 0a355.512 355.512 0 0 1-22-12.5 337.07 337.07 0 0 1-20 14.5c3.531 8.613 5.531 17.446 6 26.5a237.226 237.226 0 0 1-19 8 95.117 95.117 0 0 0-8-11 5.727 5.727 0 0 1-1-3c.617-.111 1.117-.444 1.5-1 .417 1.256 1.25 1.923 2.5 2a31.312 31.312 0 0 0 7 8c4.693-1.684 9.36-3.351 14-5-.751-6.349-2.418-12.349-5-18a29.13 29.13 0 0 1-.5-9 230.825 230.825 0 0 0 20.5-15.5 4.934 4.934 0 0 1 3-.5 178.34 178.34 0 0 0 22 13c3.327-3.661 6.66-7.328 10-11 2.981-.294 3.648-1.628 2-4z"/><path style="opacity:1" fill="#eee917" d="M252.5 268.5c4.994-.171 6.828 2.162 5.5 7-1.616-1.301-3.116-1.301-4.5 0v1c-2.644-.34-4.977.327-7 2a4.457 4.457 0 0 1-1.5-2 8.43 8.43 0 0 0-.5 4 99.664 99.664 0 0 0-18 5.5l-11 1c-1.122 3.409-1.289 6.909-.5 10.5.383.556.883.889 1.5 1 .992.172 1.658-.162 2-1a11.105 11.105 0 0 0 4.5-3c.383.556.883.889 1.5 1 1.951 1.141 3.951 1.141 6 0h1c4.055-.594 7.721-1.927 11-4a5.576 5.576 0 0 0-1-3c1.74-1.309 3.073-.976 4 1-.997-.03-1.664.47-2 1.5l2 3a18.184 18.184 0 0 0-2 3.5c1.324.506 1.991 1.839 2 4a4.934 4.934 0 0 0-3 .5c1.036 1.617 2.203 1.784 3.5.5 2.077 2.698 1.577 4.865-1.5 6.5.602 1.563 1.435 1.396 2.5-.5 2.174 1.801 2.674 3.801 1.5 6l-4-1a62.722 62.722 0 0 1-6-9c-.949-.652-2.115-.986-3.5-1a114.31 114.31 0 0 1-23.5 4 89.41 89.41 0 0 0-1 15 29.23 29.23 0 0 1-1 9c-.904.709-1.237 1.709-1 3h-16a185.422 185.422 0 0 1-1-11 197.028 197.028 0 0 0-2-17 224.754 224.754 0 0 1-24-3c-2.671-1.618-5.671-2.285-9-2v4a8.43 8.43 0 0 0-4 .5v3a11.333 11.333 0 0 0-3.5 1.5c.135 1.925.302 3.925.5 6-1.89-.203-3.39.463-4.5 2a24.91 24.91 0 0 0-6.5-5c-.923-3.485-.09-3.818 2.5-1 .712-2.195.045-3.862-2-5-.945.405-1.612 1.072-2 2a50.134 50.134 0 0 1 1.5-14 20.702 20.702 0 0 0-1.5-7 86.124 86.124 0 0 1-10-9c-1.776 1.036-3.609 1.036-5.5 0-2.174-6.153-.174-8.486 6-7h1c1.068.934 2.401 1.268 4 1v3c1.444 3.39 4.11 4.723 8 4-.214 1.644.12 3.144 1 4.5 3.02.901 6.02 1.734 9 2.5.617.111 1.117.444 1.5 1 .368-1.41 1.201-2.41 2.5-3 .501 2.155 1.501 3.822 3 5h2c2.019 3.429 4.352 3.762 7 1a44.093 44.093 0 0 0 2-3c.886.825 1.219 1.825 1 3-.262 1.478.071 2.811 1 4 .886-.825 1.219-1.825 1-3 .65-.304 1.317-.637 2-1a112.33 112.33 0 0 0 2 5c.874-2.19 2.541-3.19 5-3-.343 1.983.324 3.317 2 4h2c.709.904 1.709 1.237 3 1 2 1.333 4 1.333 6 0 2.138-1.308 4.138-.975 6 1h3l2-1 2 1h3c.977-2.787 1.31-5.787 1-9-1.291-.237-2.291.096-3 1-3.314-1.207-6.648-1.207-10 0-.709-.904-1.709-1.237-3-1l-4-1a72.032 72.032 0 0 1-11-1h-1c-.709-.904-1.709-1.237-3-1a20.69 20.69 0 0 0-5-1c-.709-.904-1.709-1.237-3-1l-2-1-10-5c.14-1.624-.527-2.79-2-3.5a9.454 9.454 0 0 0 2.5-1.5 45.074 45.074 0 0 0 13.5 4c.641.982 1.307 1.982 2 3 16.221 3.335 32.555 3.835 49 1.5 3.175-.493 5.841-1.66 8-3.5 3.663-.452 7.33-.952 11-1.5a42.615 42.615 0 0 1 12-6.5 5.576 5.576 0 0 0 1-3zm-32 7c1.175-.219 2.175.114 3 1-.457.798-1.124 1.131-2 1-.838-.342-1.172-1.008-1-2zm-43 0a143.698 143.698 0 0 0 40 1c2.198-.091 2.531.575 1 2-3.679.224-7.346.558-11 1-9.784.42-19.451-.414-29-2.5-.556-.383-.889-.883-1-1.5zm54-3c.838.342 1.172 1.008 1 2-2.286.095-4.286.762-6 2-.876.131-1.543-.202-2-1a73.972 73.972 0 0 1 7-3z"/><path style="opacity:1" fill="#201d09" d="M209.5 299.5c-.056-6.324-1.056-6.324-3 0l-2-1c-1.462-6.509-2.129-6.175-2 1h-1v-8h3c.944 5.274 1.944 5.274 3 0 .709-.904 1.709-1.237 3-1 .31 3.213-.023 6.213-1 9z"/><path style="opacity:1" fill="#bbb550" d="M209.5 299.5h-3c1.944-6.324 2.944-6.324 3 0z"/><path style="opacity:1" fill="#1c1900" d="M190.5 290.5c-.513.826-1.847 1.492-4 2a4.457 4.457 0 0 0 2 1.5c-1.473.71-2.14 1.876-2 3.5 4.338.122 4.672.455 1 1-1.291.237-2.291-.096-3-1v-7h6z"/><path style="opacity:1" fill="#c3bf4c" d="M190.5 290.5v-1l4 1a16.994 16.994 0 0 1-2 6.5c.07.765.403 1.265 1 1.5-2 1.333-4 1.333-6 0 3.672-.545 3.338-.878-1-1-.14-1.624.527-2.79 2-3.5a4.457 4.457 0 0 1-2-1.5c2.153-.508 3.487-1.174 4-2z"/><path style="opacity:1" fill="#87865c" d="m204.5 298.5-2 1c-.129-7.175.538-7.509 2-1z"/><path style="opacity:1" fill="#c5c151" d="M207.5 291.5c-1.056 5.274-2.056 5.274-3 0h-3v8h-2c-.06-2.841-.726-5.507-2-8 3.352-1.207 6.686-1.207 10 0z"/><path style="opacity:1" fill="#b1ad6e" d="M228.5 292.5c1.4.6 2.4 1.6 3 3h-1a71.254 71.254 0 0 0-4-2c.457-.798 1.124-1.131 2-1z"/><path style="opacity:1" fill="#1f1d02" d="M218.5 297.5c-.342.838-1.008 1.172-2 1a41.73 41.73 0 0 0-1-9c2.292-.256 4.459.077 6.5 1 .847 2.99-.32 4.324-3.5 4v3z"/><path style="opacity:1" fill="#343013" d="M194.5 290.5c1.291-.237 2.291.096 3 1 1.274 2.493 1.94 5.159 2 8-1.862-1.975-3.862-2.308-6-1-.597-.235-.93-.735-1-1.5a16.994 16.994 0 0 0 2-6.5z"/><path style="opacity:1" fill="#1f1e03" d="M178.5 288.5h1c-2.888 3.232-2.221 4.232 2 3-1.129-2.029-.629-2.363 1.5-1a179.42 179.42 0 0 0-.5 7c-1.676-.683-2.343-2.017-2-4-2.459-.19-4.126.81-5 3-.477-3.417.523-6.084 3-8z"/><path style="opacity:1" fill="#c3c04b" d="M175.5 287.5c1.291-.237 2.291.096 3 1-2.477 1.916-3.477 4.583-3 8a112.33 112.33 0 0 1-2-5c-.683.363-1.35.696-2 1 .331-2.538 1.664-4.204 4-5z"/><path style="opacity:1" fill="#2c2906" d="M228.5 292.5c-.876-.131-1.543.202-2 1a71.254 71.254 0 0 1 4 2c-2.049 1.141-4.049 1.141-6 0l-1-8a18.453 18.453 0 0 1 6 .5c-5.229 2.774-4.895 3.774 1 3-.544.717-1.211 1.217-2 1.5z"/><path style="opacity:1" fill="#bcc477" d="M217.5 290.5h3v3h-3v-3z"/><path style="opacity:1" fill="#b2af63" d="M179.5 288.5c3.635.614 7.302.948 11 1v1h-6v7h-2c.127-2.415.293-4.749.5-7-2.129-1.363-2.629-1.029-1.5 1-4.221 1.232-4.888.232-2-3z"/><path style="opacity:1" fill="#c3be5d" d="M167.5 285.5c1.291-.237 2.291.096 3 1 .074 1.578-.26 3.245-1 5 .219-1.175-.114-2.175-1-3a44.093 44.093 0 0 1-2 3c-.548-1.894-1.548-3.56-3-5l1-1c1.38 2.477 2.38 2.477 3 0z"/><path style="opacity:1" fill="#2f2a08" d="m165.5 284.5 2 1c-.62 2.477-1.62 2.477-3 0l-1 1c1.452 1.44 2.452 3.106 3 5-2.648 2.762-4.981 2.429-7-1 1.492.213 3.158.213 5 0-2.059-1.451-3.059-3.451-3-6h4z"/><path style="opacity:1" fill="#2a2809" d="M170.5 286.5a20.69 20.69 0 0 1 5 1c-2.336.796-3.669 2.462-4 5 .219 1.175-.114 2.175-1 3-.929-1.189-1.262-2.522-1-4 .74-1.755 1.074-3.422 1-5z"/><path style="opacity:1" fill="#ceca66" d="M153.5 280.5v-1h2l10 5h-4c-.059 2.549.941 4.549 3 6-1.842.213-3.508.213-5 0h-2c1.733-2.446 2.567-5.113 2.5-8-3.042 5.312-4.209 4.645-3.5-2h-3z"/><path style="opacity:1" fill="#29240b" d="M153.5 280.5h3c-.709 6.645.458 7.312 3.5 2 .067 2.887-.767 5.554-2.5 8-1.499-1.178-2.499-2.845-3-5-1.299.59-2.132 1.59-2.5 3-.383-.556-.883-.889-1.5-1a32.508 32.508 0 0 0 3-7z"/><path style="opacity:1" fill="#dcd746" d="M132.5 276.5h1c.473 1.406 1.473 2.073 3 2 1.419.951 3.085 1.284 5 1 .399 3.471 1.899 3.804 4.5 1l1 5a48.558 48.558 0 0 0 6.5-5 32.508 32.508 0 0 1-3 7c-2.98-.766-5.98-1.599-9-2.5-.88-1.356-1.214-2.856-1-4.5-3.89.723-6.556-.61-8-4z"/><path style="opacity:1" fill="#e0dd44" d="M169.5 278.5a99.484 99.484 0 0 0 21 4c12.823 1.315 25.49.315 38-3-2.159 1.84-4.825 3.007-8 3.5-16.445 2.335-32.779 1.835-49-1.5a185.977 185.977 0 0 1-2-3z"/><path style="opacity:1" fill="#92904c" d="M148.5 276.5c.6 1.4 1.6 2.4 3 3-.311.978-.978 1.645-2 2-.952-1.545-1.285-3.212-1-5z"/><path style="opacity:1" fill="#2a280f" d="M144.5 274.5a240.024 240.024 0 0 0-.5 6 10.515 10.515 0 0 0 2.5-3l2-1c-.285 1.788.048 3.455 1 5 1.022-.355 1.689-1.022 2-2h2v1a48.558 48.558 0 0 1-6.5 5l-1-5c-2.601 2.804-4.101 2.471-4.5-1 .845-1.171 1.511-2.505 2-4 0-.667.333-1 1-1z"/><path style="opacity:1" fill="#948e51" d="m144.5 274.5 2 3a10.515 10.515 0 0 1-2.5 3c.135-1.925.302-3.925.5-6z"/><path style="opacity:1" fill="#b4ae5c" d="m141.5 272.5 2 3c-.489 1.495-1.155 2.829-2 4-1.915.284-3.581-.049-5-1 4.408.438 6.075-1.562 5-6z"/><path style="opacity:1" fill="#c5c7c4" d="M217.5 276.5c.709-.904 1.709-1.237 3-1-.172.992.162 1.658 1 2-.709.904-1.709 1.237-3 1 1.531-1.425 1.198-2.091-1-2z"/><path style="opacity:1" fill="#d4cf52" d="M136.5 271.5c4.32.459 4.987 2.292 2 5.5a4.934 4.934 0 0 1-3 .5c-.175-2.121.159-4.121 1-6z"/><path style="opacity:1" fill="#c9c8cb" d="M231.5 272.5c.342-.838 1.008-1.172 2-1-.172.992.162 1.658 1 2-.342.838-1.008 1.172-2 1 .172-.992-.162-1.658-1-2z"/><path style="opacity:1" fill="#dfdb36" d="M165.5 303.5a240.024 240.024 0 0 0-6-.5 215.258 215.258 0 0 1-10 13.5 240.024 240.024 0 0 1-.5-6 11.333 11.333 0 0 1 3.5-1.5v-3a8.43 8.43 0 0 1 4-.5v-4c3.329-.285 6.329.382 9 2z"/><path style="opacity:1" fill="#24231d" d="M238.5 304.5a62.722 62.722 0 0 0 6 9l2 4c-1.25-.077-2.083-.744-2.5-2-.383.556-.883.889-1.5 1-2.635-2.579-4.801-5.579-6.5-9a67.714 67.714 0 0 1-19.5 4 658.658 658.658 0 0 0-4 27h-23a253.66 253.66 0 0 0-4.5-26 168.095 168.095 0 0 0-12.5-3 31.147 31.147 0 0 0-2-2c.124-.607.457-.94 1-1a93.441 93.441 0 0 0 17 2c.382 5.244 1.382 10.244 3 15 .224 3.679.558 7.346 1 11 5.475.989 11.142 1.322 17 1v-4a29.23 29.23 0 0 0 1-9 205.257 205.257 0 0 0 3-13.5 262.197 262.197 0 0 0 25-4.5z"/><path style="opacity:1" fill="#e6e22a" d="M121.5 279.5c1.891 1.036 3.724 1.036 5.5 0a86.124 86.124 0 0 0 10 9 20.702 20.702 0 0 1 1.5 7 50.134 50.134 0 0 0-1.5 14c.388-.928 1.055-1.595 2-2 2.045 1.138 2.712 2.805 2 5-2.59-2.818-3.423-2.485-2.5 1a24.91 24.91 0 0 1 6.5 5c1.11-1.537 2.61-2.203 4.5-2-1.287 2.953-3.287 5.286-6 7-4.11-.891-7.776-2.558-11-5-.869-2.217-1.202-4.55-1-7a93.412 93.412 0 0 0 4.5-20 84.343 84.343 0 0 1-14.5-12z"/><path style="opacity:1" fill="#5d5d5a" d="M169.5 305.5c.992-.172 1.658.162 2 1-.543.06-.876.393-1 1a31.147 31.147 0 0 1 2 2c-3.616-.399-6.95-1.399-10-3a12.992 12.992 0 0 1 5.5 1c1.03-.336 1.53-1.003 1.5-2z"/><path style="opacity:1" fill="#d0cc3f" d="M165.5 303.5a224.754 224.754 0 0 0 24 3 197.028 197.028 0 0 1 2 17c-1.618-4.756-2.618-9.756-3-15a93.441 93.441 0 0 1-17-2c-.342-.838-1.008-1.172-2-1-1.653-.16-2.986-.826-4-2z"/><path style="opacity:1" fill="#d6d543" d="M238.5 304.5a262.197 262.197 0 0 1-25 4.5 205.257 205.257 0 0 1-3 13.5 89.41 89.41 0 0 1 1-15 114.31 114.31 0 0 0 23.5-4c1.385.014 2.551.348 3.5 1z"/><path style="opacity:1" fill="#f5f9ed" d="M243.5 319.5c-.667.667-.667.667 0 0z"/><path style="opacity:1" fill="#272621" d="M121.5 279.5a84.343 84.343 0 0 0 14.5 12 93.412 93.412 0 0 1-4.5 20c-.934 1.272-1.601 2.772-2 4.5.248 1.749 1.248 2.582 3 2.5 3.224 2.442 6.89 4.109 11 5 2.713-1.714 4.713-4.047 6-7a215.258 215.258 0 0 0 10-13.5c1.925.135 3.925.302 6 .5 1.014 1.174 2.347 1.84 4 2 .03.997-.47 1.664-1.5 2a12.992 12.992 0 0 0-5.5-1 10262.571 10262.571 0 0 0-18 22 578.152 578.152 0 0 1-18-8.5c.78-7.948 2.78-15.782 6-23.5-1.402-1.342-1.069-2.176 1-2.5a338.414 338.414 0 0 1-17-13.5c-1.48-2.103-2.647-2.103-3.5 0l-1-1a107.653 107.653 0 0 1-19.5 10 27.568 27.568 0 0 1-6-3.5c.544-.717 1.21-1.217 2-1.5.814 1.773 2.148 2.273 4 1.5a343.702 343.702 0 0 0 22-11.5 25.497 25.497 0 0 0 7 5z"/><path style="opacity:1" fill="#bcb74e" d="M131.5 311.5c-.202 2.45.131 4.783 1 7-1.752.082-2.752-.751-3-2.5.399-1.728 1.066-3.228 2-4.5z"/><path style="opacity:1" fill="#f6f2f7" d="M116.5 280.5c-.667.667-.667.667 0 0z"/><path style="opacity:1" fill="#dad73b" d="M262.5 302.5c2.582 5.651 4.249 11.651 5 18-4.64 1.649-9.307 3.316-14 5a31.312 31.312 0 0 1-7-8l-2-4 4 1c.961.717 1.961 1.883 3 3.5-1.154.914-.987 1.747.5 2.5 1.666-.84 1.833-.34.5 1.5l3.5.5a42.532 42.532 0 0 1 9.5-3 47.134 47.134 0 0 1-3-17z"/><path style="opacity:1" fill="#9c993a" d="M209.5 331.5v4c-5.858.322-11.525-.011-17-1h16c-.237-1.291.096-2.291 1-3z"/></svg>